<?xml version="1.0" encoding="UTF-8" standalone="no"?>
<!-- Created with Inkscape (http://www.inkscape.org/) -->

<svg
   xmlns:dc="http://purl.org/dc/elements/1.1/"
   xmlns:cc="http://creativecommons.org/ns#"
   xmlns:rdf="http://www.w3.org/1999/02/22-rdf-syntax-ns#"
   xmlns:svg="http://www.w3.org/2000/svg"
   xmlns="http://www.w3.org/2000/svg"
   xmlns:sodipodi="http://sodipodi.sourceforge.net/DTD/sodipodi-0.dtd"
   xmlns:inkscape="http://www.inkscape.org/namespaces/inkscape"
   id="svg2"
   version="1.1"
   inkscape:version="0.91 r13725"
   xml:space="preserve"
   width="31.25"
   height="31.25"
   viewBox="0 0 31.25 31.25"
   sodipodi:docname="13962.svg"><metadata
     id="metadata8"><rdf:RDF><cc:Work
         rdf:about=""><dc:format>image/svg+xml</dc:format><dc:type
           rdf:resource="http://purl.org/dc/dcmitype/StillImage" /><dc:title></dc:title></cc:Work></rdf:RDF></metadata><defs
     id="defs6"><radialGradient
       fx="0"
       fy="0"
       cx="0"
       cy="0"
       r="1"
       gradientUnits="userSpaceOnUse"
       gradientTransform="matrix(32.6915,0,0,-32.6915,12.5,12.5)"
       spreadMethod="pad"
       id="radialGradient14"><stop
         style="stop-opacity:1;stop-color:#ffffff"
         offset="0"
         id="stop16" /><stop
         style="stop-opacity:1;stop-color:#100f0d"
         offset="1"
         id="stop18" /></radialGradient><clipPath
       clipPathUnits="userSpaceOnUse"
       id="clipPath26"><path
         d="m 71.1328,162.766 c 0,-10.977 -8.4336,-20.012 -19.1406,-20.871 -0.5899,-0.11 -1.1914,-0.11 -1.7813,-0.11 -1.5664,0 -3.0859,0.156 -4.5429,0.488 -9.4063,2.114 -16.4414,10.493 -16.4414,20.493 0,11.57 9.4179,20.925 20.9843,20.925 11.5704,0 20.9219,-9.355 20.9219,-20.925 z"
         id="path28"
         inkscape:connector-curvature="0" /></clipPath><linearGradient
       x1="0"
       y1="0"
       x2="1"
       y2="0"
       gradientUnits="userSpaceOnUse"
       gradientTransform="matrix(8.74701,-59.2106,-59.2106,-8.74701,45.0195,197.744)"
       spreadMethod="pad"
       id="linearGradient30"><stop
         style="stop-opacity:1;stop-color:#2a3986"
         offset="0"
         id="stop32" /><stop
         style="stop-opacity:1;stop-color:#171c3b"
         offset="0.94086"
         id="stop34" /><stop
         style="stop-opacity:1;stop-color:#171c3b"
         offset="1"
         id="stop36" /></linearGradient><clipPath
       clipPathUnits="userSpaceOnUse"
       id="clipPath46"><path
         d="m 120.801,162.785 c 0,-11.594 -9.391,-20.969 -20.9612,-20.969 -11.5742,0 -20.9492,9.375 -20.9492,20.969 0,11.57 9.375,20.945 20.9492,20.945 11.5702,0 20.9612,-9.375 20.9612,-20.945 z"
         id="path48"
         inkscape:connector-curvature="0" /></clipPath><linearGradient
       x1="0"
       y1="0"
       x2="1"
       y2="0"
       gradientUnits="userSpaceOnUse"
       gradientTransform="matrix(0.76299,-65.6164,-65.6164,-0.76299,99.4141,200.395)"
       spreadMethod="pad"
       id="linearGradient50"><stop
         style="stop-opacity:1;stop-color:#46bb3a"
         offset="0"
         id="stop52" /><stop
         style="stop-opacity:1;stop-color:#46bb3a"
         offset="0.132227"
         id="stop54" /><stop
         style="stop-opacity:1;stop-color:#2c9c40"
         offset="0.793966"
         id="stop56" /><stop
         style="stop-opacity:1;stop-color:#2c9c40"
         offset="1"
         id="stop58" /></linearGradient><clipPath
       clipPathUnits="userSpaceOnUse"
       id="clipPath70"><path
         d="m 170.117,162.5 c 0,-11.562 -9.387,-20.957 -20.945,-20.957 -11.582,0 -20.957,9.395 -20.957,20.957 0,11.582 9.375,20.957 20.957,20.957 11.558,0 20.945,-9.375 20.945,-20.957 z"
         id="path72"
         inkscape:connector-curvature="0" /></clipPath><linearGradient
       x1="0"
       y1="0"
       x2="1"
       y2="0"
       gradientUnits="userSpaceOnUse"
       gradientTransform="matrix(-3e-6,-68.9238,-68.9238,3e-6,149.17,206.48)"
       spreadMethod="pad"
       id="linearGradient74"><stop
         style="stop-opacity:1;stop-color:#50abe3"
         offset="0"
         id="stop76" /><stop
         style="stop-opacity:1;stop-color:#50abe3"
         offset="0.317204"
         id="stop78" /><stop
         style="stop-opacity:1;stop-color:#3d84c9"
         offset="0.672043"
         id="stop80" /><stop
         style="stop-opacity:1;stop-color:#3d84c9"
         offset="1"
         id="stop82" /></linearGradient><clipPath
       clipPathUnits="userSpaceOnUse"
       id="clipPath92"><path
         d="m 220.781,162.629 c 0,-11.586 -9.375,-20.969 -20.957,-20.969 -11.562,0 -20.945,9.383 -20.945,20.969 0,11.57 9.383,20.957 20.945,20.957 11.582,0 20.957,-9.387 20.957,-20.957 z"
         id="path94"
         inkscape:connector-curvature="0" /></clipPath><clipPath
       clipPathUnits="userSpaceOnUse"
       id="clipPath98"><path
         d="m 175.637,186.828 c 1.597,0 3.218,0 4.832,0 1.609,0 3.222,0 4.844,0 1.613,0 3.234,0 4.843,0 1.614,0 3.211,0 4.832,0 1.614,0 3.227,0 4.836,0 1.621,0 3.235,0 4.832,0 1.621,0 3.235,0 4.848,0 1.609,0 3.23,0 4.844,0 1.597,0 3.218,0 4.832,0 1.609,0 3.222,0 4.836,0 0,-1.613 0,-3.242 0,-4.848 0,-1.609 0,-3.23 0,-4.839 0,-1.614 0,-3.227 0,-4.848 0,-1.609 0,-3.23 0,-4.832 0,-1.621 0,-3.223 0,-4.832 0,-1.621 0,-3.242 0,-4.863 0,-1.594 0,-3.215 0,-4.825 0,-1.613 0,-3.234 0,-4.843 0,-1.621 0,-3.227 0,-4.836 0,-1.621 0,-3.242 0,-4.832 -1.614,0 -3.227,0 -4.836,0 -1.614,0 -3.235,0 -4.832,0 -1.614,0 -3.235,0 -4.844,0 -1.613,0 -3.227,0 -4.848,0 -1.597,0 -3.211,0 -4.832,0 -1.609,0 -3.222,0 -4.836,0 -1.621,0 -3.218,0 -4.832,0 -1.609,0 -3.23,0 -4.843,0 -1.622,0 -3.235,0 -4.844,0 -1.614,0 -3.235,0 -4.832,0 0,1.59 0,3.211 0,4.832 0,1.609 0,3.215 0,4.836 0,1.609 0,3.23 0,4.843 0,1.61 0,3.231 0,4.825 0,1.621 0,3.242 0,4.863 0,1.609 0,3.211 0,4.832 0,1.602 0,3.223 0,4.832 0,1.621 0,3.234 0,4.848 0,1.609 0,3.23 0,4.839 0,1.606 0,3.235 0,4.848 z"
         id="path100"
         inkscape:connector-curvature="0" /></clipPath><clipPath
       clipPathUnits="userSpaceOnUse"
       id="clipPath104"><path
         d="m 196,141 0,1 -4,0 0,1 -2,0 0,1 -1,0 0,1 -2,0 0,1 -1,0 0,1 -2,0 0,2 -1,0 0,1 -1,0 0,2 -1,0 0,1 -1,0 0,3 -1,0 0,4 -1,0 0,6 1,0 0,3 1,0 0,3 1,0 0,1 1,0 0,2 1,0 0,1 1,0 0,2 1,0 0,1 2,0 0,1 1,0 0,1 2,0 0,1 1,0 0,1 4,0 0,1 10,0 0,-1 3,0 0,-1 2,0 0,-1 1,0 0,-1 2,0 0,-1 1,0 0,-1 1,0 0,-1 1,0 0,-1 1,0 0,-2 1,0 0,-1 1,0 0,-2 1,0 0,-3 1,0 0,-11 -1,0 0,-3 -1,0 0,-2 -1,0 0,-1 -1,0 0,-2 -1,0 0,-1 -1,0 0,-1 -1,0 0,-1 -2,0 0,-1 -1,0 0,-1 -1,0 0,-1 -3,0 0,-1 -3,0 0,-1"
         id="path106"
         inkscape:connector-curvature="0" /></clipPath></defs><sodipodi:namedview
     pagecolor="#ffffff"
     bordercolor="#666666"
     borderopacity="1"
     objecttolerance="10"
     gridtolerance="10"
     guidetolerance="10"
     inkscape:pageopacity="0"
     inkscape:pageshadow="2"
     inkscape:window-width="1869"
     inkscape:window-height="1056"
     id="namedview4"
     showgrid="false"
     inkscape:zoom="6.1156461"
     inkscape:cx="-71.987057"
     inkscape:cy="5.840552"
     inkscape:window-x="1417"
     inkscape:window-y="24"
     inkscape:window-maximized="1"
     inkscape:current-layer="g10" /><g
     id="g10"
     inkscape:groupmode="layer"
     inkscape:label="ink_ext_XXXXXX"
     transform="matrix(1.25,0,0,-1.25,0,31.25)"><g
       id="g22"
       transform="scale(0.1,0.1)"><g
         clip-path="url(#clipPath26)"
         id="g24"><path
           inkscape:connector-curvature="0"
           id="path38"
           style="fill:url(#linearGradient30);fill-opacity:1;fill-rule:nonzero;stroke:none"
           d="m 71.1328,162.766 c 0,-10.977 -8.4336,-20.012 -19.1406,-20.871 -0.5899,-0.11 -1.1914,-0.11 -1.7813,-0.11 -1.5664,0 -3.0859,0.156 -4.5429,0.488 -9.4063,2.114 -16.4414,10.493 -16.4414,20.493 0,11.57 9.4179,20.925 20.9843,20.925 11.5704,0 20.9219,-9.355 20.9219,-20.925" /></g></g><path
       inkscape:connector-curvature="0"
       id="path40"
       style="fill:#ffffff;fill-opacity:1;fill-rule:nonzero;stroke:none"
       d="m 5.25898,16.7141 c 0.03204,0.0379 0.09688,0.0652 0.18907,0.0652 0.08633,0 0.18906,-0.0117 0.28633,-0.0391 l 0.08164,0.4395 c -0.16758,0.0598 -0.34024,0.0762 -0.51914,0.0762 -0.17891,0 -0.31915,-0.0274 -0.43243,-0.0926 C 4.75039,17.0984 4.67461,17.0273 4.63203,16.9246 4.58828,16.8332 4.5668,16.677 4.5668,16.4824 l 0,-0.1738 -0.34649,0 0,-0.5031 0.34649,0 0,-1.5782 c 0.1457,-0.0332 0.29765,-0.0488 0.45429,-0.0488 0.05899,0 0.11914,0 0.17813,0.011 l 0,1.616 0.45937,0 0,0.5031 -0.45937,0 0,0.1633 c 0,0.1238 0.01641,0.1992 0.05976,0.2422" /><g
       id="g42"
       transform="scale(0.1,0.1)"><g
         clip-path="url(#clipPath46)"
         id="g44"><path
           inkscape:connector-curvature="0"
           id="path60"
           style="fill:url(#linearGradient50);fill-opacity:1;fill-rule:nonzero;stroke:none"
           d="m 120.801,162.785 c 0,-11.594 -9.391,-20.969 -20.9612,-20.969 -11.5742,0 -20.9492,9.375 -20.9492,20.969 0,11.57 9.375,20.945 20.9492,20.945 11.5702,0 20.9612,-9.375 20.9612,-20.945" /></g></g><path
       inkscape:connector-curvature="0"
       id="path62"
       style="fill:#ffffff;fill-opacity:1;fill-rule:evenodd;stroke:none"
       d="m 10.1633,15.2441 c -0.0613,-0.0117 -0.1184,-0.0175 -0.1473,-0.0125 -0.22498,0 -0.40623,0.0485 -0.57459,0.1465 C 9.41758,15.3926 9.39922,15.3977 9.37656,15.3887 9.26133,15.3602 9.14883,15.3301 9.03477,15.3008 9.01133,15.293 9.00898,15.2969 9.01406,15.3215 c 0.03047,0.1055 0.0586,0.2129 0.0918,0.3219 0.00742,0.0293 0.00547,0.0511 -0.01328,0.0754 -0.23086,0.375 -0.22031,0.839 0.03789,1.1863 0.26875,0.3597 0.63867,0.509 1.07733,0.4152 0.4332,-0.091 0.7106,-0.373 0.8094,-0.8039 C 11.157,15.927 10.759,15.341 10.1633,15.2441 Z m 1.0633,1.3332 c -0.1387,0.5809 -0.6391,0.9754 -1.24262,0.984 C 9.9043,17.5586 9.81836,17.552 9.74023,17.5359 8.89414,17.3672 8.45859,16.4328 8.86758,15.6797 8.88242,15.6594 8.88242,15.6398 8.8793,15.6172 8.81992,15.4227 8.76523,15.2219 8.7125,15.0254 8.70352,14.9902 8.70352,14.9902 8.73633,15 c 0.20664,0.0555 0.41094,0.1086 0.61719,0.1594 0.01796,0.0058 0.03086,0.0058 0.0457,-0.0031 0.26484,-0.1348 0.54414,-0.1708 0.83708,-0.1172 0.6989,0.1347 1.1575,0.8464 0.9903,1.5382" /><path
       inkscape:connector-curvature="0"
       id="path64"
       style="fill:#ffffff;fill-opacity:1;fill-rule:evenodd;stroke:none"
       d="m 10.3176,15.6797 c -0.0446,-0.0039 -0.0895,0.0051 -0.1324,0.0183 -0.29184,0.0852 -0.51254,0.2637 -0.6895,0.5059 -0.06601,0.0902 -0.1289,0.1867 -0.14804,0.3 -0.02696,0.1328 0.01445,0.25 0.11484,0.341 0.0332,0.0313 0.13008,0.0457 0.16992,0.0262 0.0125,-0.0117 0.01992,-0.0227 0.02813,-0.0352 C 9.69688,16.7461 9.73516,16.6621 9.77188,16.5754 9.77734,16.5578 9.77656,16.5402 9.76641,16.5215 9.74727,16.4824 9.71719,16.4492 9.68867,16.4168 9.66406,16.3957 9.66406,16.3711 9.68047,16.3469 c 0.10469,-0.175 0.2457,-0.3 0.43513,-0.3735 0.0274,-0.0117 0.0485,-0.0074 0.0657,0.0149 0.0328,0.0371 0.0648,0.0781 0.0953,0.1183 0.0183,0.0254 0.0433,0.0289 0.0707,0.0184 0.0625,-0.0293 0.1238,-0.0586 0.1836,-0.0859 0.0164,-0.0078 0.0281,-0.0149 0.0429,-0.0196 0.0629,-0.0312 0.0629,-0.0359 0.0555,-0.1035 -0.0082,-0.1328 -0.1102,-0.2 -0.227,-0.2332 -0.0316,-0.007 -0.057,-0.007 -0.0847,-0.0031" /><g
       id="g66"
       transform="scale(0.1,0.1)"><g
         clip-path="url(#clipPath70)"
         id="g68"><path
           inkscape:connector-curvature="0"
           id="path84"
           style="fill:url(#linearGradient74);fill-opacity:1;fill-rule:nonzero;stroke:none"
           d="m 170.117,162.5 c 0,-11.562 -9.387,-20.957 -20.945,-20.957 -11.582,0 -20.957,9.395 -20.957,20.957 0,11.582 9.375,20.957 20.957,20.957 11.558,0 20.945,-9.375 20.945,-20.957" /></g></g><path
       inkscape:connector-curvature="0"
       id="path86"
       style="fill:#ffffff;fill-opacity:1;fill-rule:evenodd;stroke:none"
       d="m 13.6484,15.3977 c 0.1993,-0.0129 0.3926,0.0164 0.5743,0.0984 0.082,0.0352 0.1562,0.0801 0.2304,0.1379 -0.0871,0.0027 -0.166,0.0234 -0.2383,0.0594 -0.123,0.0625 -0.2097,0.1609 -0.2628,0.2937 -0.0118,0.0293 -0.0118,0.0293 0.0207,0.0277 0.0878,-0.0089 0.1523,-0.007 0.2019,0.0137 -0.0476,0.0164 -0.0926,0.0242 -0.1297,0.0496 -0.1836,0.1016 -0.2812,0.2586 -0.2976,0.4688 -0.0024,0.0246 0.0047,0.0273 0.0269,0.0168 0.0649,-0.0352 0.1352,-0.0508 0.216,-0.0598 -0.0351,0.032 -0.0656,0.0574 -0.0925,0.0852 -0.1528,0.164 -0.1887,0.4246 -0.0872,0.625 0.0137,0.0261 0.0184,0.0261 0.0372,0.0047 0.257,-0.295 0.5761,-0.4747 0.9609,-0.536 0.0391,-0.007 0.082,-0.0082 0.1223,-0.016 0.0269,-0.0035 0.03,0.009 0.0261,0.0297 -0.0398,0.2312 0.0684,0.4609 0.2735,0.5762 0.209,0.1218 0.4804,0.0828 0.6484,-0.0813 0.0195,-0.0168 0.0383,-0.0203 0.0606,-0.0144 0.1035,0.0234 0.2,0.0625 0.291,0.1132 0.0078,0.0016 0.0136,0.0075 0.0234,0.0145 -0.0391,-0.1301 -0.1172,-0.2258 -0.2324,-0.3035 0.1062,0.0105 0.2019,0.0406 0.2969,0.0777 0.0019,-0.0133 -0.0079,-0.0211 -0.0137,-0.0312 -0.0645,-0.0887 -0.1399,-0.168 -0.2285,-0.2332 -0.0164,-0.0137 -0.0203,-0.0243 -0.0203,-0.0461 0.0066,-0.4032 -0.1223,-0.7625 -0.3801,-1.075 -0.2422,-0.284 -0.552,-0.4563 -0.9199,-0.5157 -0.3907,-0.0613 -0.7579,0.0051 -1.0957,0.2129 -0.0039,0.0028 -0.0086,0.0071 -0.0118,0.0071" /><g
       id="g88"
       transform="scale(0.1,0.1)"><g
         clip-path="url(#clipPath92)"
         id="g90"><g
           clip-path="url(#clipPath98)"
           id="g96"><g
             clip-path="url(#clipPath104)"
             id="g102"><g
               transform="matrix(1,0,0,-1,-8179,8204)"
               id="g108"><path
                 inkscape:connector-curvature="0"
                 id="path110"
                 style="fill:#474ba8;fill-opacity:1;fill-rule:nonzero;stroke:none"
                 d="m 8196.5633,8185.32 c 0.1601,0 0.3222,0 0.4833,0 0,0.081 0,0.1616 0,0.2421 -0.1611,0 -0.3232,0 -0.4833,0 0,-0.081 0,-0.1616 0,-0.2421 z" /><path
                 inkscape:connector-curvature="0"
                 id="path112"
                 style="fill:#4948a6;fill-opacity:1;fill-rule:nonzero;stroke:none"
                 d="m 8196.5633,8185.5621 c 0.1601,0 0.3222,0 0.4833,0 0,0.081 0,0.1621 0,0.2422 -0.1611,0 -0.3232,0 -0.4833,0 0,-0.08 0,-0.1611 0,-0.2422 z" /><path
                 inkscape:connector-curvature="0"
                 id="path114"
                 style="fill:#4c47a5;fill-opacity:1;fill-rule:nonzero;stroke:none"
                 d="m 8197.0466,8185.32 c 0.1611,0 0.3222,0 0.4842,0 0,0.081 0,0.1616 0,0.2421 -0.162,0 -0.3231,0 -0.4842,0 0,-0.081 0,-0.1616 0,-0.2421 z" /><path
                 inkscape:connector-curvature="0"
                 id="path116"
                 style="fill:#5243a3;fill-opacity:1;fill-rule:nonzero;stroke:none"
                 d="m 8197.0466,8185.5621 c 0.1611,0 0.3222,0 0.4842,0 0,0.081 0,0.1621 0,0.2422 -0.162,0 -0.3231,0 -0.4842,0 0,-0.08 0,-0.1611 0,-0.2422 z" /><path
                 inkscape:connector-curvature="0"
                 id="path118"
                 style="fill:#5540a2;fill-opacity:1;fill-rule:nonzero;stroke:none"
                 d="m 8197.5308,8185.32 c 0.1611,0 0.3232,0 0.4843,0 0,0.1611 0,0.3241 0,0.4843 -0.1611,0 -0.3232,0 -0.4843,0 0,-0.1602 0,-0.3232 0,-0.4843 z" /><path
                 inkscape:connector-curvature="0"
                 id="path120"
                 style="fill:#5d3a9e;fill-opacity:1;fill-rule:nonzero;stroke:none"
                 d="m 8198.0151,8185.32 c 0.1611,0 0.3212,0 0.4833,0 0,0.081 0,0.1616 0,0.2421 -0.1621,0 -0.3222,0 -0.4833,0 0,-0.081 0,-0.1616 0,-0.2421 z" /><path
                 inkscape:connector-curvature="0"
                 id="path122"
                 style="fill:#6d2f99;fill-opacity:1;fill-rule:nonzero;stroke:none"
                 d="m 8198.0151,8185.5621 c 0.1611,0 0.3212,0 0.4833,0 0,0.081 0,0.1621 0,0.2422 -0.1621,0 -0.3222,0 -0.4833,0 0,-0.08 0,-0.1611 0,-0.2422 z" /><path
                 inkscape:connector-curvature="0"
                 id="path124"
                 style="fill:#67349b;fill-opacity:1;fill-rule:nonzero;stroke:none"
                 d="m 8198.4984,8185.32 c 0.1611,0 0.3222,0 0.4833,0 0,0.081 0,0.1616 0,0.2421 -0.1611,0 -0.3222,0 -0.4833,0 0,-0.081 0,-0.1616 0,-0.2421 z" /><path
                 inkscape:connector-curvature="0"
                 id="path126"
                 style="fill:#782996;fill-opacity:1;fill-rule:nonzero;stroke:none"
                 d="m 8198.4984,8185.5621 c 0.1611,0 0.3222,0 0.4833,0 0,0.081 0,0.1621 0,0.2422 -0.1611,0 -0.3222,0 -0.4833,0 0,-0.08 0,-0.1611 0,-0.2422 z" /><path
                 inkscape:connector-curvature="0"
                 id="path128"
                 style="fill:#6c319a;fill-opacity:1;fill-rule:nonzero;stroke:none"
                 d="m 8198.9817,8185.32 c 0.162,0 0.3231,0 0.4832,0 0,0.1611 0,0.3241 0,0.4843 -0.1601,0 -0.3212,0 -0.4832,0 0,-0.1602 0,-0.3232 0,-0.4843 z" /><path
                 inkscape:connector-curvature="0"
                 id="path130"
                 style="fill:#6c329a;fill-opacity:1;fill-rule:nonzero;stroke:none"
                 d="m 8199.4649,8185.32 c 0.1621,0 0.3232,0 0.4843,0 0,0.1611 0,0.3241 0,0.4843 -0.1611,0 -0.3222,0 -0.4843,0 0,-0.1602 0,-0.3232 0,-0.4843 z" /><path
                 inkscape:connector-curvature="0"
                 id="path132"
                 style="fill:#66359c;fill-opacity:1;fill-rule:nonzero;stroke:none"
                 d="m 8199.9492,8185.32 c 0.1611,0 0.3231,0 0.4842,0 0,0.1611 0,0.3241 0,0.4843 -0.1611,0 -0.3231,0 -0.4842,0 0,-0.1602 0,-0.3232 0,-0.4843 z" /><path
                 inkscape:connector-curvature="0"
                 id="path134"
                 style="fill:#5e3a9e;fill-opacity:1;fill-rule:nonzero;stroke:none"
                 d="m 8200.4334,8185.32 c 0.1602,0 0.3222,0 0.4833,0 0,0.1611 0,0.3241 0,0.4843 -0.1611,0 -0.3231,0 -0.4833,0 0,-0.1602 0,-0.3232 0,-0.4843 z" /><path
                 inkscape:connector-curvature="0"
                 id="path136"
                 style="fill:#583fa1;fill-opacity:1;fill-rule:nonzero;stroke:none"
                 d="m 8200.9167,8185.32 c 0.1611,0 0.3222,0 0.4833,0 0,0.1611 0,0.3241 0,0.4843 -0.1611,0 -0.3222,0 -0.4833,0 0,-0.1602 0,-0.3232 0,-0.4843 z" /><path
                 inkscape:connector-curvature="0"
                 id="path138"
                 style="fill:#4d44a3;fill-opacity:1;fill-rule:nonzero;stroke:none"
                 d="m 8196.5633,8185.8043 c 0.1601,0 0.3222,0 0.4833,0 0,0.081 0,0.161 0,0.2421 -0.1611,0 -0.3232,0 -0.4833,0 0,-0.081 0,-0.1616 0,-0.2421 z" /><path
                 inkscape:connector-curvature="0"
                 id="path140"
                 style="fill:#553d9f;fill-opacity:1;fill-rule:nonzero;stroke:none"
                 d="m 8196.5633,8186.0464 c 0.1601,0 0.3222,0 0.4833,0 0,0.081 0,0.1616 0,0.2421 -0.1611,0 -0.3232,0 -0.4833,0 0,-0.081 0,-0.1611 0,-0.2421 z" /><path
                 inkscape:connector-curvature="0"
                 id="path142"
                 style="fill:#5b3ca0;fill-opacity:1;fill-rule:nonzero;stroke:none"
                 d="m 8197.0466,8185.8043 c 0.1611,0 0.3222,0 0.4842,0 0,0.081 0,0.161 0,0.2421 -0.162,0 -0.3231,0 -0.4842,0 0,-0.081 0,-0.1616 0,-0.2421 z" /><path
                 inkscape:connector-curvature="0"
                 id="path144"
                 style="fill:#6e2f99;fill-opacity:1;fill-rule:nonzero;stroke:none"
                 d="m 8197.0466,8186.0464 c 0.1611,0 0.3222,0 0.4842,0 0,0.081 0,0.1616 0,0.2421 -0.162,0 -0.3231,0 -0.4842,0 0,-0.081 0,-0.1611 0,-0.2421 z" /><path
                 inkscape:connector-curvature="0"
                 id="path146"
                 style="fill:#6f2e99;fill-opacity:1;fill-rule:nonzero;stroke:none"
                 d="m 8197.5308,8185.8043 c 0.1611,0 0.3232,0 0.4843,0 0,0.161 0,0.3231 0,0.4842 -0.1611,0 -0.3232,0 -0.4843,0 0,-0.1611 0,-0.3232 0,-0.4842 z" /><path
                 inkscape:connector-curvature="0"
                 id="path148"
                 style="fill:#832193;fill-opacity:1;fill-rule:nonzero;stroke:none"
                 d="m 8198.0151,8185.8043 c 0.1611,0 0.3212,0 0.4833,0 0,0.161 0,0.3231 0,0.4842 -0.1621,0 -0.3222,0 -0.4833,0 0,-0.1611 0,-0.3232 0,-0.4842 z" /><path
                 inkscape:connector-curvature="0"
                 id="path150"
                 style="fill:#90188f;fill-opacity:1;fill-rule:nonzero;stroke:none"
                 d="m 8198.4984,8185.8043 c 0.1611,0 0.3222,0 0.4833,0 0,0.161 0,0.3231 0,0.4842 -0.1611,0 -0.3222,0 -0.4833,0 0,-0.1611 0,-0.3232 0,-0.4842 z" /><path
                 inkscape:connector-curvature="0"
                 id="path152"
                 style="fill:#94178f;fill-opacity:1;fill-rule:nonzero;stroke:none"
                 d="m 8198.9817,8185.8043 c 0.162,0 0.3231,0 0.4832,0 0,0.161 0,0.3231 0,0.4842 -0.1601,0 -0.3212,0 -0.4832,0 0,-0.1611 0,-0.3232 0,-0.4842 z" /><path
                 inkscape:connector-curvature="0"
                 id="path154"
                 style="fill:#901a90;fill-opacity:1;fill-rule:nonzero;stroke:none"
                 d="m 8199.4649,8185.8043 c 0.1621,0 0.3232,0 0.4843,0 0,0.161 0,0.3231 0,0.4842 -0.1611,0 -0.3222,0 -0.4843,0 0,-0.1611 0,-0.3232 0,-0.4842 z" /><path
                 inkscape:connector-curvature="0"
                 id="path156"
                 style="fill:#882093;fill-opacity:1;fill-rule:nonzero;stroke:none"
                 d="m 8199.9492,8185.8043 c 0.1611,0 0.3231,0 0.4842,0 0,0.161 0,0.3231 0,0.4842 -0.1611,0 -0.3231,0 -0.4842,0 0,-0.1611 0,-0.3232 0,-0.4842 z" /><path
                 inkscape:connector-curvature="0"
                 id="path158"
                 style="fill:#792a97;fill-opacity:1;fill-rule:nonzero;stroke:none"
                 d="m 8200.4334,8185.8043 c 0.1602,0 0.3222,0 0.4833,0 0,0.161 0,0.3231 0,0.4842 -0.1611,0 -0.3231,0 -0.4833,0 0,-0.1611 0,-0.3232 0,-0.4842 z" /><path
                 inkscape:connector-curvature="0"
                 id="path160"
                 style="fill:#69349b;fill-opacity:1;fill-rule:nonzero;stroke:none"
                 d="m 8200.9167,8185.8043 c 0.1611,0 0.3222,0 0.4833,0 0,0.161 0,0.3231 0,0.4842 -0.1611,0 -0.3222,0 -0.4833,0 0,-0.1611 0,-0.3232 0,-0.4842 z" /><path
                 inkscape:connector-curvature="0"
                 id="path162"
                 style="fill:#65329a;fill-opacity:1;fill-rule:nonzero;stroke:none"
                 d="m 8196.5633,8186.2885 c 0,0.1611 0,0.3222 0,0.4843 0.08,0 0.1611,0 0.2412,0 0,-0.1621 0,-0.3232 0,-0.4843 -0.08,0 -0.1611,0 -0.2412,0 z" /><path
                 inkscape:connector-curvature="0"
                 id="path164"
                 style="fill:#772896;fill-opacity:1;fill-rule:nonzero;stroke:none"
                 d="m 8196.8045,8186.2885 c 0.081,0 0.162,0 0.2421,0 0,0.081 0,0.1611 0,0.2416 -0.08,0 -0.1611,0 -0.2421,0 0,-0.081 0,-0.161 0,-0.2416 z" /><path
                 inkscape:connector-curvature="0"
                 id="path166"
                 style="fill:#95188d;fill-opacity:1;fill-rule:nonzero;stroke:none"
                 d="m 8196.8045,8186.5301 c 0.081,0 0.162,0 0.2421,0 0,0.081 0,0.1616 0,0.2427 -0.08,0 -0.1611,0 -0.2421,0 0,-0.081 0,-0.1621 0,-0.2427 z" /><path
                 inkscape:connector-curvature="0"
                 id="path168"
                 style="fill:#891c90;fill-opacity:1;fill-rule:nonzero;stroke:none"
                 d="m 8197.0466,8186.2885 c 0.1611,0 0.3222,0 0.4842,0 0,0.081 0,0.1611 0,0.2416 -0.162,0 -0.3231,0 -0.4842,0 0,-0.081 0,-0.161 0,-0.2416 z" /><path
                 inkscape:connector-curvature="0"
                 id="path170"
                 style="fill:#a51783;fill-opacity:1;fill-rule:nonzero;stroke:none"
                 d="m 8197.0466,8186.5301 c 0.1611,0 0.3222,0 0.4842,0 0,0.081 0,0.1616 0,0.2427 -0.162,0 -0.3231,0 -0.4842,0 0,-0.081 0,-0.1621 0,-0.2427 z" /><path
                 inkscape:connector-curvature="0"
                 id="path172"
                 style="fill:#a71482;fill-opacity:1;fill-rule:nonzero;stroke:none"
                 d="m 8197.5308,8186.2885 c 0.1611,0 0.3232,0 0.4843,0 0,0.081 0,0.1611 0,0.2416 -0.1611,0 -0.3232,0 -0.4843,0 0,-0.081 0,-0.161 0,-0.2416 z" /><path
                 inkscape:connector-curvature="0"
                 id="path174"
                 style="fill:#bd166c;fill-opacity:1;fill-rule:nonzero;stroke:none"
                 d="m 8197.5308,8186.5301 c 0.1611,0 0.3232,0 0.4843,0 0,0.081 0,0.1616 0,0.2427 -0.1611,0 -0.3232,0 -0.4843,0 0,-0.081 0,-0.1621 0,-0.2427 z" /><path
                 inkscape:connector-curvature="0"
                 id="path176"
                 style="fill:#b61376;fill-opacity:1;fill-rule:nonzero;stroke:none"
                 d="m 8198.0151,8186.2885 c 0.1611,0 0.3212,0 0.4833,0 0,0.081 0,0.1611 0,0.2416 -0.1621,0 -0.3222,0 -0.4833,0 0,-0.081 0,-0.161 0,-0.2416 z" /><path
                 inkscape:connector-curvature="0"
                 id="path178"
                 style="fill:#c91661;fill-opacity:1;fill-rule:nonzero;stroke:none"
                 d="m 8198.0151,8186.5301 c 0.1611,0 0.3212,0 0.4833,0 0,0.081 0,0.1616 0,0.2427 -0.1621,0 -0.3222,0 -0.4833,0 0,-0.081 0,-0.1621 0,-0.2427 z" /><path
                 inkscape:connector-curvature="0"
                 id="path180"
                 style="fill:#bb1271;fill-opacity:1;fill-rule:nonzero;stroke:none"
                 d="m 8198.4984,8186.2885 c 0.1611,0 0.3222,0 0.4833,0 0,0.081 0,0.1611 0,0.2416 -0.1611,0 -0.3222,0 -0.4833,0 0,-0.081 0,-0.161 0,-0.2416 z" /><path
                 inkscape:connector-curvature="0"
                 id="path182"
                 style="fill:#cc155e;fill-opacity:1;fill-rule:nonzero;stroke:none"
                 d="m 8198.4984,8186.5301 c 0.1611,0 0.3222,0 0.4833,0 0,0.081 0,0.1616 0,0.2427 -0.1611,0 -0.3222,0 -0.4833,0 0,-0.081 0,-0.1621 0,-0.2427 z" /><path
                 inkscape:connector-curvature="0"
                 id="path184"
                 style="fill:#bb1274;fill-opacity:1;fill-rule:nonzero;stroke:none"
                 d="m 8198.9817,8186.2885 c 0.162,0 0.3231,0 0.4832,0 0,0.081 0,0.1611 0,0.2416 -0.1601,0 -0.3212,0 -0.4832,0 0,-0.081 0,-0.161 0,-0.2416 z" /><path
                 inkscape:connector-curvature="0"
                 id="path186"
                 style="fill:#cb1262;fill-opacity:1;fill-rule:nonzero;stroke:none"
                 d="m 8198.9817,8186.5301 c 0.162,0 0.3231,0 0.4832,0 0,0.081 0,0.1616 0,0.2427 -0.1601,0 -0.3212,0 -0.4832,0 0,-0.081 0,-0.1621 0,-0.2427 z" /><path
                 inkscape:connector-curvature="0"
                 id="path188"
                 style="fill:#b6117c;fill-opacity:1;fill-rule:nonzero;stroke:none"
                 d="m 8199.4649,8186.2885 c 0.1621,0 0.3232,0 0.4843,0 0,0.1611 0,0.3222 0,0.4843 -0.1611,0 -0.3222,0 -0.4843,0 0,-0.1621 0,-0.3232 0,-0.4843 z" /><path
                 inkscape:connector-curvature="0"
                 id="path190"
                 style="fill:#b01186;fill-opacity:1;fill-rule:nonzero;stroke:none"
                 d="m 8199.9492,8186.2885 c 0.1611,0 0.3231,0 0.4842,0 0,0.1611 0,0.3222 0,0.4843 -0.1611,0 -0.3231,0 -0.4842,0 0,-0.1621 0,-0.3232 0,-0.4843 z" /><path
                 inkscape:connector-curvature="0"
                 id="path192"
                 style="fill:#a4128e;fill-opacity:1;fill-rule:nonzero;stroke:none"
                 d="m 8200.4334,8186.2885 c 0.1602,0 0.3222,0 0.4833,0 0,0.1611 0,0.3222 0,0.4843 -0.1611,0 -0.3231,0 -0.4833,0 0,-0.1621 0,-0.3232 0,-0.4843 z" /><path
                 inkscape:connector-curvature="0"
                 id="path194"
                 style="fill:#911d92;fill-opacity:1;fill-rule:nonzero;stroke:none"
                 d="m 8200.9167,8186.2885 c 0.1611,0 0.3222,0 0.4833,0 0,0.1611 0,0.3222 0,0.4843 -0.1611,0 -0.3222,0 -0.4833,0 0,-0.1621 0,-0.3232 0,-0.4843 z" /><path
                 inkscape:connector-curvature="0"
                 id="path196"
                 style="fill:#9a1984;fill-opacity:1;fill-rule:nonzero;stroke:none"
                 d="m 8196.5633,8186.7728 c 0.08,0 0.1611,0 0.2412,0 0,0.081 0,0.1611 0,0.2421 -0.08,0 -0.1611,0 -0.2412,0 0,-0.081 0,-0.1616 0,-0.2421 z" /><path
                 inkscape:connector-curvature="0"
                 id="path198"
                 style="fill:#b11c6d;fill-opacity:1;fill-rule:nonzero;stroke:none"
                 d="m 8196.5633,8187.0149 c 0.08,0 0.1611,0 0.2412,0 0,0.081 0,0.1611 0,0.2411 -0.08,0 -0.1611,0 -0.2412,0 0,-0.08 0,-0.1606 0,-0.2411 z" /><path
                 inkscape:connector-curvature="0"
                 id="path200"
                 style="fill:#ae1977;fill-opacity:1;fill-rule:nonzero;stroke:none"
                 d="m 8196.8045,8186.7728 c 0.081,0 0.162,0 0.2421,0 0,0.081 0,0.1611 0,0.2421 -0.08,0 -0.1611,0 -0.2421,0 0,-0.081 0,-0.1616 0,-0.2421 z" /><path
                 inkscape:connector-curvature="0"
                 id="path202"
                 style="fill:#c31e62;fill-opacity:1;fill-rule:nonzero;stroke:none"
                 d="m 8196.8045,8187.0149 c 0.081,0 0.162,0 0.2421,0 0,0.081 0,0.1611 0,0.2411 -0.08,0 -0.1611,0 -0.2421,0 0,-0.08 0,-0.1606 0,-0.2411 z" /><path
                 inkscape:connector-curvature="0"
                 id="path204"
                 style="fill:#be196b;fill-opacity:1;fill-rule:nonzero;stroke:none"
                 d="m 8197.0466,8186.7728 c 0.08,0 0.1611,0 0.2421,0 0,0.081 0,0.1611 0,0.2421 -0.081,0 -0.1621,0 -0.2421,0 0,-0.081 0,-0.1616 0,-0.2421 z" /><path
                 inkscape:connector-curvature="0"
                 id="path206"
                 style="fill:#d12156;fill-opacity:1;fill-rule:nonzero;stroke:none"
                 d="m 8197.0466,8187.0149 c 0.08,0 0.1611,0 0.2421,0 0,0.081 0,0.1611 0,0.2411 -0.081,0 -0.1621,0 -0.2421,0 0,-0.08 0,-0.1606 0,-0.2411 z" /><path
                 inkscape:connector-curvature="0"
                 id="path208"
                 style="fill:#c91b61;fill-opacity:1;fill-rule:nonzero;stroke:none"
                 d="m 8197.2887,8186.7728 c 0.08,0 0.1611,0 0.2421,0 0,0.081 0,0.1611 0,0.2421 -0.081,0 -0.162,0 -0.2421,0 0,-0.081 0,-0.1616 0,-0.2421 z" /><path
                 inkscape:connector-curvature="0"
                 id="path210"
                 style="fill:#d9244c;fill-opacity:1;fill-rule:nonzero;stroke:none"
                 d="m 8197.2887,8187.0149 c 0.08,0 0.1611,0 0.2421,0 0,0.081 0,0.1611 0,0.2411 -0.081,0 -0.162,0 -0.2421,0 0,-0.08 0,-0.1606 0,-0.2411 z" /><path
                 inkscape:connector-curvature="0"
                 id="path212"
                 style="fill:#cf1d58;fill-opacity:1;fill-rule:nonzero;stroke:none"
                 d="m 8197.5308,8186.7728 c 0.1611,0 0.3232,0 0.4843,0 0,0.081 0,0.1611 0,0.2421 -0.1611,0 -0.3232,0 -0.4843,0 0,-0.081 0,-0.1616 0,-0.2421 z" /><path
                 inkscape:connector-curvature="0"
                 id="path214"
                 style="fill:#df2844;fill-opacity:1;fill-rule:nonzero;stroke:none"
                 d="m 8197.5308,8187.0149 c 0.1611,0 0.3232,0 0.4843,0 0,0.081 0,0.1611 0,0.2411 -0.1611,0 -0.3232,0 -0.4843,0 0,-0.08 0,-0.1606 0,-0.2411 z" /><path
                 inkscape:connector-curvature="0"
                 id="path216"
                 style="fill:#d8204d;fill-opacity:1;fill-rule:nonzero;stroke:none"
                 d="m 8198.0151,8186.7728 c 0.1611,0 0.3212,0 0.4833,0 0,0.1611 0,0.3231 0,0.4832 -0.1621,0 -0.3222,0 -0.4833,0 0,-0.1601 0,-0.3221 0,-0.4832 z" /><path
                 inkscape:connector-curvature="0"
                 id="path218"
                 style="fill:#da1d4c;fill-opacity:1;fill-rule:nonzero;stroke:none"
                 d="m 8198.4984,8186.7728 c 0.1611,0 0.3222,0 0.4833,0 0,0.1611 0,0.3231 0,0.4832 -0.1611,0 -0.3222,0 -0.4833,0 0,-0.1601 0,-0.3221 0,-0.4832 z" /><path
                 inkscape:connector-curvature="0"
                 id="path220"
                 style="fill:#d81851;fill-opacity:1;fill-rule:nonzero;stroke:none"
                 d="m 8198.9817,8186.7728 c 0.162,0 0.3231,0 0.4832,0 0,0.1611 0,0.3231 0,0.4832 -0.1601,0 -0.3212,0 -0.4832,0 0,-0.1601 0,-0.3221 0,-0.4832 z" /><path
                 inkscape:connector-curvature="0"
                 id="path222"
                 style="fill:#d3125b;fill-opacity:1;fill-rule:nonzero;stroke:none"
                 d="m 8199.4649,8186.7728 c 0.1621,0 0.3232,0 0.4843,0 0,0.1611 0,0.3231 0,0.4832 -0.1611,0 -0.3222,0 -0.4843,0 0,-0.1601 0,-0.3221 0,-0.4832 z" /><path
                 inkscape:connector-curvature="0"
                 id="path224"
                 style="fill:#cb1167;fill-opacity:1;fill-rule:nonzero;stroke:none"
                 d="m 8199.9492,8186.7728 c 0.1611,0 0.3231,0 0.4842,0 0,0.1611 0,0.3231 0,0.4832 -0.1611,0 -0.3231,0 -0.4842,0 0,-0.1601 0,-0.3221 0,-0.4832 z" /><path
                 inkscape:connector-curvature="0"
                 id="path226"
                 style="fill:#c11077;fill-opacity:1;fill-rule:nonzero;stroke:none"
                 d="m 8200.4334,8186.7728 c 0.1602,0 0.3222,0 0.4833,0 0,0.1611 0,0.3231 0,0.4832 -0.1611,0 -0.3231,0 -0.4833,0 0,-0.1601 0,-0.3221 0,-0.4832 z" /><path
                 inkscape:connector-curvature="0"
                 id="path228"
                 style="fill:#b41088;fill-opacity:1;fill-rule:nonzero;stroke:none"
                 d="m 8200.9167,8186.7728 c 0.1611,0 0.3222,0 0.4833,0 0,0.1611 0,0.3231 0,0.4832 -0.1611,0 -0.3222,0 -0.4833,0 0,-0.1601 0,-0.3221 0,-0.4832 z" /><path
                 inkscape:connector-curvature="0"
                 id="path230"
                 style="fill:#c62258;fill-opacity:1;fill-rule:nonzero;stroke:none"
                 d="m 8196.5633,8187.256 c 0,0.1621 0,0.3222 0,0.4833 0.08,0 0.1611,0 0.2412,0 0,-0.1611 0,-0.3212 0,-0.4833 -0.08,0 -0.1611,0 -0.2412,0 z" /><path
                 inkscape:connector-curvature="0"
                 id="path232"
                 style="fill:#d4284d;fill-opacity:1;fill-rule:nonzero;stroke:none"
                 d="m 8196.8045,8187.256 c 0,0.1621 0,0.3222 0,0.4833 0.081,0 0.162,0 0.2421,0 0,-0.1611 0,-0.3212 0,-0.4833 -0.08,0 -0.1611,0 -0.2421,0 z" /><path
                 inkscape:connector-curvature="0"
                 id="path234"
                 style="fill:#e02c44;fill-opacity:1;fill-rule:nonzero;stroke:none"
                 d="m 8197.0466,8187.256 c 0.1611,0 0.3222,0 0.4842,0 0,0.081 0,0.1616 0,0.2422 -0.162,0 -0.3231,0 -0.4842,0 0,-0.081 0,-0.1611 0,-0.2422 z" /><path
                 inkscape:connector-curvature="0"
                 id="path236"
                 style="fill:#e83536;fill-opacity:1;fill-rule:nonzero;stroke:none"
                 d="m 8197.0466,8187.4982 c 0.1611,0 0.3222,0 0.4842,0 0,0.08 0,0.1606 0,0.2411 -0.162,0 -0.3231,0 -0.4842,0 0,-0.081 0,-0.1611 0,-0.2411 z" /><path
                 inkscape:connector-curvature="0"
                 id="path238"
                 style="fill:#ea3236;fill-opacity:1;fill-rule:nonzero;stroke:none"
                 d="m 8197.5308,8187.256 c 0.1611,0 0.3232,0 0.4843,0 0,0.081 0,0.1616 0,0.2422 -0.1611,0 -0.3232,0 -0.4843,0 0,-0.081 0,-0.1611 0,-0.2422 z" /><path
                 inkscape:connector-curvature="0"
                 id="path240"
                 style="fill:#ee3b2e;fill-opacity:1;fill-rule:nonzero;stroke:none"
                 d="m 8197.5308,8187.4982 c 0.1611,0 0.3232,0 0.4843,0 0,0.08 0,0.1606 0,0.2411 -0.1611,0 -0.3232,0 -0.4843,0 0,-0.081 0,-0.1611 0,-0.2411 z" /><path
                 inkscape:connector-curvature="0"
                 id="path242"
                 style="fill:#ec3334;fill-opacity:1;fill-rule:nonzero;stroke:none"
                 d="m 8198.0151,8187.256 c 0.1611,0 0.3212,0 0.4833,0 0,0.1621 0,0.3222 0,0.4833 -0.1621,0 -0.3222,0 -0.4833,0 0,-0.1611 0,-0.3212 0,-0.4833 z" /><path
                 inkscape:connector-curvature="0"
                 id="path244"
                 style="fill:#eb3235;fill-opacity:1;fill-rule:nonzero;stroke:none"
                 d="m 8198.4984,8187.256 c 0.1611,0 0.3222,0 0.4833,0 0,0.1621 0,0.3222 0,0.4833 -0.1611,0 -0.3222,0 -0.4833,0 0,-0.1611 0,-0.3212 0,-0.4833 z" /><path
                 inkscape:connector-curvature="0"
                 id="path246"
                 style="fill:#e82a3a;fill-opacity:1;fill-rule:nonzero;stroke:none"
                 d="m 8198.9817,8187.256 c 0.162,0 0.3231,0 0.4832,0 0,0.1621 0,0.3222 0,0.4833 -0.1601,0 -0.3212,0 -0.4832,0 0,-0.1611 0,-0.3212 0,-0.4833 z" /><path
                 inkscape:connector-curvature="0"
                 id="path248"
                 style="fill:#e31f43;fill-opacity:1;fill-rule:nonzero;stroke:none"
                 d="m 8199.4649,8187.256 c 0.1621,0 0.3232,0 0.4843,0 0,0.1621 0,0.3222 0,0.4833 -0.1611,0 -0.3222,0 -0.4843,0 0,-0.1611 0,-0.3212 0,-0.4833 z" /><path
                 inkscape:connector-curvature="0"
                 id="path250"
                 style="fill:#dd144f;fill-opacity:1;fill-rule:nonzero;stroke:none"
                 d="m 8199.9492,8187.256 c 0.1611,0 0.3231,0 0.4842,0 0,0.1621 0,0.3222 0,0.4833 -0.1611,0 -0.3231,0 -0.4842,0 0,-0.1611 0,-0.3212 0,-0.4833 z" /><path
                 inkscape:connector-curvature="0"
                 id="path252"
                 style="fill:#d4115e;fill-opacity:1;fill-rule:nonzero;stroke:none"
                 d="m 8200.4334,8187.256 c 0.1602,0 0.3222,0 0.4833,0 0,0.1621 0,0.3222 0,0.4833 -0.1611,0 -0.3231,0 -0.4833,0 0,-0.1611 0,-0.3212 0,-0.4833 z" /><path
                 inkscape:connector-curvature="0"
                 id="path254"
                 style="fill:#ca106f;fill-opacity:1;fill-rule:nonzero;stroke:none"
                 d="m 8200.9167,8187.256 c 0.1611,0 0.3222,0 0.4833,0 0,0.1621 0,0.3222 0,0.4833 -0.1611,0 -0.3222,0 -0.4833,0 0,-0.1611 0,-0.3212 0,-0.4833 z" /><path
                 inkscape:connector-curvature="0"
                 id="path256"
                 style="fill:#de3339;fill-opacity:1;fill-rule:nonzero;stroke:none"
                 d="m 8196.5633,8187.7393 c 0,0.1621 0,0.3242 0,0.4862 0.08,0 0.1611,0 0.2412,0 0,-0.162 0,-0.3241 0,-0.4862 -0.08,0 -0.1611,0 -0.2412,0 z" /><path
                 inkscape:connector-curvature="0"
                 id="path258"
                 style="fill:#e83932;fill-opacity:1;fill-rule:nonzero;stroke:none"
                 d="m 8196.8045,8187.7393 c 0,0.1621 0,0.3242 0,0.4862 0.081,0 0.162,0 0.2421,0 0,-0.162 0,-0.3241 0,-0.4862 -0.08,0 -0.1611,0 -0.2421,0 z" /><path
                 inkscape:connector-curvature="0"
                 id="path260"
                 style="fill:#ee3e2d;fill-opacity:1;fill-rule:nonzero;stroke:none"
                 d="m 8197.0466,8187.7393 c 0.1611,0 0.3222,0 0.4842,0 0,0.081 0,0.1621 0,0.2431 -0.162,0 -0.3231,0 -0.4842,0 0,-0.081 0,-0.162 0,-0.2431 z" /><path
                 inkscape:connector-curvature="0"
                 id="path262"
                 style="fill:#f04528;fill-opacity:1;fill-rule:nonzero;stroke:none"
                 d="m 8197.0466,8187.9824 c 0.1611,0 0.3222,0 0.4842,0 0,0.081 0,0.1621 0,0.2431 -0.162,0 -0.3231,0 -0.4842,0 0,-0.081 0,-0.162 0,-0.2431 z" /><path
                 inkscape:connector-curvature="0"
                 id="path264"
                 style="fill:#f04329;fill-opacity:1;fill-rule:nonzero;stroke:none"
                 d="m 8197.5308,8187.7393 c 0.1611,0 0.3232,0 0.4843,0 0,0.1621 0,0.3242 0,0.4862 -0.1611,0 -0.3232,0 -0.4843,0 0,-0.162 0,-0.3241 0,-0.4862 z" /><path
                 inkscape:connector-curvature="0"
                 id="path266"
                 style="fill:#f04329;fill-opacity:1;fill-rule:nonzero;stroke:none"
                 d="m 8198.0151,8187.7393 c 0.1611,0 0.3212,0 0.4833,0 0,0.1621 0,0.3242 0,0.4862 -0.1621,0 -0.3222,0 -0.4833,0 0,-0.162 0,-0.3241 0,-0.4862 z" /><path
                 inkscape:connector-curvature="0"
                 id="path268"
                 style="fill:#ef412a;fill-opacity:1;fill-rule:nonzero;stroke:none"
                 d="m 8198.4984,8187.7393 c 0.1611,0 0.3222,0 0.4833,0 0,0.1621 0,0.3242 0,0.4862 -0.1611,0 -0.3222,0 -0.4833,0 0,-0.162 0,-0.3241 0,-0.4862 z" /><path
                 inkscape:connector-curvature="0"
                 id="path270"
                 style="fill:#ef3b2e;fill-opacity:1;fill-rule:nonzero;stroke:none"
                 d="m 8198.9817,8187.7393 c 0.162,0 0.3231,0 0.4832,0 0,0.1621 0,0.3242 0,0.4862 -0.1601,0 -0.3212,0 -0.4832,0 0,-0.162 0,-0.3241 0,-0.4862 z" /><path
                 inkscape:connector-curvature="0"
                 id="path272"
                 style="fill:#ed3134;fill-opacity:1;fill-rule:nonzero;stroke:none"
                 d="m 8199.4649,8187.7393 c 0.1621,0 0.3232,0 0.4843,0 0,0.1621 0,0.3242 0,0.4862 -0.1611,0 -0.3222,0 -0.4843,0 0,-0.162 0,-0.3241 0,-0.4862 z" /><path
                 inkscape:connector-curvature="0"
                 id="path274"
                 style="fill:#e7223e;fill-opacity:1;fill-rule:nonzero;stroke:none"
                 d="m 8199.9492,8187.7393 c 0.1611,0 0.3231,0 0.4842,0 0,0.1621 0,0.3242 0,0.4862 -0.1611,0 -0.3231,0 -0.4842,0 0,-0.162 0,-0.3241 0,-0.4862 z" /><path
                 inkscape:connector-curvature="0"
                 id="path276"
                 style="fill:#e0154c;fill-opacity:1;fill-rule:nonzero;stroke:none"
                 d="m 8200.4334,8187.7393 c 0.1602,0 0.3222,0 0.4833,0 0,0.1621 0,0.3242 0,0.4862 -0.1611,0 -0.3231,0 -0.4833,0 0,-0.162 0,-0.3241 0,-0.4862 z" /><path
                 inkscape:connector-curvature="0"
                 id="path278"
                 style="fill:#d9115c;fill-opacity:1;fill-rule:nonzero;stroke:none"
                 d="m 8200.9167,8187.7393 c 0.1611,0 0.3222,0 0.4833,0 0,0.1621 0,0.3242 0,0.4862 -0.1611,0 -0.3222,0 -0.4833,0 0,-0.162 0,-0.3241 0,-0.4862 z" /><path
                 inkscape:connector-curvature="0"
                 id="path280"
                 style="fill:#e84427;fill-opacity:1;fill-rule:nonzero;stroke:none"
                 d="m 8196.5633,8188.2255 c 0,0.1592 0,0.3212 0,0.4823 0.08,0 0.1611,0 0.2412,0 0,-0.1611 0,-0.3231 0,-0.4823 -0.08,0 -0.1611,0 -0.2412,0 z" /><path
                 inkscape:connector-curvature="0"
                 id="path282"
                 style="fill:#ee4926;fill-opacity:1;fill-rule:nonzero;stroke:none"
                 d="m 8196.8045,8188.2255 c 0,0.1592 0,0.3212 0,0.4823 0.081,0 0.162,0 0.2421,0 0,-0.1611 0,-0.3231 0,-0.4823 -0.08,0 -0.1611,0 -0.2421,0 z" /><path
                 inkscape:connector-curvature="0"
                 id="path284"
                 style="fill:#f04d27;fill-opacity:1;fill-rule:nonzero;stroke:none"
                 d="m 8197.0466,8188.2255 c 0.1611,0 0.3222,0 0.4842,0 0,0.1592 0,0.3212 0,0.4823 -0.162,0 -0.3231,0 -0.4842,0 0,-0.1611 0,-0.3231 0,-0.4823 z" /><path
                 inkscape:connector-curvature="0"
                 id="path286"
                 style="fill:#f05428;fill-opacity:1;fill-rule:nonzero;stroke:none"
                 d="m 8197.5308,8188.2255 c 0.1611,0 0.3232,0 0.4843,0 0,0.1592 0,0.3212 0,0.4823 -0.1611,0 -0.3232,0 -0.4843,0 0,-0.1611 0,-0.3231 0,-0.4823 z" /><path
                 inkscape:connector-curvature="0"
                 id="path288"
                 style="fill:#f05627;fill-opacity:1;fill-rule:nonzero;stroke:none"
                 d="m 8198.0151,8188.2255 c 0.1611,0 0.3212,0 0.4833,0 0,0.08 0,0.1601 0,0.2407 -0.1621,0 -0.3222,0 -0.4833,0 0,-0.081 0,-0.1611 0,-0.2407 z" /><path
                 inkscape:connector-curvature="0"
                 id="path290"
                 style="fill:#f06824;fill-opacity:1;fill-rule:nonzero;stroke:none"
                 d="m 8198.0151,8188.4662 c 0.1611,0 0.3212,0 0.4833,0 0,0.081 0,0.1611 0,0.2416 -0.1621,0 -0.3222,0 -0.4833,0 0,-0.081 0,-0.1611 0,-0.2416 z" /><path
                 inkscape:connector-curvature="0"
                 id="path292"
                 style="fill:#f05026;fill-opacity:1;fill-rule:nonzero;stroke:none"
                 d="m 8198.4984,8188.2255 c 0.1611,0 0.3222,0 0.4833,0 0,0.1592 0,0.3212 0,0.4823 -0.1611,0 -0.3222,0 -0.4833,0 0,-0.1611 0,-0.3231 0,-0.4823 z" /><path
                 inkscape:connector-curvature="0"
                 id="path294"
                 style="fill:#ef4728;fill-opacity:1;fill-rule:nonzero;stroke:none"
                 d="m 8198.9817,8188.2255 c 0.162,0 0.3231,0 0.4832,0 0,0.1592 0,0.3212 0,0.4823 -0.1601,0 -0.3212,0 -0.4832,0 0,-0.1611 0,-0.3231 0,-0.4823 z" /><path
                 inkscape:connector-curvature="0"
                 id="path296"
                 style="fill:#ef3f2b;fill-opacity:1;fill-rule:nonzero;stroke:none"
                 d="m 8199.4649,8188.2255 c 0.1621,0 0.3232,0 0.4843,0 0,0.1592 0,0.3212 0,0.4823 -0.1611,0 -0.3222,0 -0.4843,0 0,-0.1611 0,-0.3231 0,-0.4823 z" /><path
                 inkscape:connector-curvature="0"
                 id="path298"
                 style="fill:#ee3333;fill-opacity:1;fill-rule:nonzero;stroke:none"
                 d="m 8199.9492,8188.2255 c 0.1611,0 0.3231,0 0.4842,0 0,0.1592 0,0.3212 0,0.4823 -0.1611,0 -0.3231,0 -0.4842,0 0,-0.1611 0,-0.3231 0,-0.4823 z" /><path
                 inkscape:connector-curvature="0"
                 id="path300"
                 style="fill:#e81f3f;fill-opacity:1;fill-rule:nonzero;stroke:none"
                 d="m 8200.4334,8188.2255 c 0,0.1592 0,0.3212 0,0.4823 0.08,0 0.1611,0 0.2412,0 0,-0.1611 0,-0.3231 0,-0.4823 -0.08,0 -0.1611,0 -0.2412,0 z" /><path
                 inkscape:connector-curvature="0"
                 id="path302"
                 style="fill:#e51846;fill-opacity:1;fill-rule:nonzero;stroke:none"
                 d="m 8200.6746,8188.2255 c 0,0.1592 0,0.3212 0,0.4823 0.081,0 0.1621,0 0.2421,0 0,-0.1611 0,-0.3231 0,-0.4823 -0.08,0 -0.1611,0 -0.2421,0 z" /><path
                 inkscape:connector-curvature="0"
                 id="path304"
                 style="fill:#e2134d;fill-opacity:1;fill-rule:nonzero;stroke:none"
                 d="m 8200.9167,8188.2255 c 0.1611,0 0.3222,0 0.4833,0 0,0.1592 0,0.3212 0,0.4823 -0.1611,0 -0.3222,0 -0.4833,0 0,-0.1611 0,-0.3231 0,-0.4823 z" /><path
                 inkscape:connector-curvature="0"
                 id="path306"
                 style="fill:#ea5623;fill-opacity:1;fill-rule:nonzero;stroke:none"
                 d="m 8196.5633,8188.7078 c 0.1601,0 0.3222,0 0.4833,0 0,0.1611 0,0.3232 0,0.4843 -0.1611,0 -0.3232,0 -0.4833,0 0,-0.1611 0,-0.3232 0,-0.4843 z" /><path
                 inkscape:connector-curvature="0"
                 id="path308"
                 style="fill:#f06a25;fill-opacity:1;fill-rule:nonzero;stroke:none"
                 d="m 8197.0466,8188.7078 c 0.1611,0 0.3222,0 0.4842,0 0,0.1611 0,0.3232 0,0.4843 -0.162,0 -0.3231,0 -0.4842,0 0,-0.1611 0,-0.3232 0,-0.4843 z" /><path
                 inkscape:connector-curvature="0"
                 id="path310"
                 style="fill:#f27a25;fill-opacity:1;fill-rule:nonzero;stroke:none"
                 d="m 8197.5308,8188.7078 c 0.1611,0 0.3232,0 0.4843,0 0,0.1611 0,0.3232 0,0.4843 -0.1611,0 -0.3232,0 -0.4843,0 0,-0.1611 0,-0.3232 0,-0.4843 z" /><path
                 inkscape:connector-curvature="0"
                 id="path312"
                 style="fill:#f27d25;fill-opacity:1;fill-rule:nonzero;stroke:none"
                 d="m 8198.0151,8188.7078 c 0,0.1611 0,0.3232 0,0.4843 0.08,0 0.1601,0 0.2411,0 0,-0.1611 0,-0.3232 0,-0.4843 -0.081,0 -0.161,0 -0.2411,0 z" /><path
                 inkscape:connector-curvature="0"
                 id="path314"
                 style="fill:#f17924;fill-opacity:1;fill-rule:nonzero;stroke:none"
                 d="m 8198.2562,8188.7078 c 0,0.1611 0,0.3232 0,0.4843 0.081,0 0.1611,0 0.2422,0 0,-0.1611 0,-0.3232 0,-0.4843 -0.081,0 -0.1611,0 -0.2422,0 z" /><path
                 inkscape:connector-curvature="0"
                 id="path316"
                 style="fill:#f27225;fill-opacity:1;fill-rule:nonzero;stroke:none"
                 d="m 8198.4984,8188.7078 c 0.1611,0 0.3222,0 0.4833,0 0,0.1611 0,0.3232 0,0.4843 -0.1611,0 -0.3222,0 -0.4833,0 0,-0.1611 0,-0.3232 0,-0.4843 z" /><path
                 inkscape:connector-curvature="0"
                 id="path318"
                 style="fill:#f15d27;fill-opacity:1;fill-rule:nonzero;stroke:none"
                 d="m 8198.9817,8188.7078 c 0.162,0 0.3231,0 0.4832,0 0,0.1611 0,0.3232 0,0.4843 -0.1601,0 -0.3212,0 -0.4832,0 0,-0.1611 0,-0.3232 0,-0.4843 z" /><path
                 inkscape:connector-curvature="0"
                 id="path320"
                 style="fill:#ef4a26;fill-opacity:1;fill-rule:nonzero;stroke:none"
                 d="m 8199.4649,8188.7078 c 0.1621,0 0.3232,0 0.4843,0 0,0.1611 0,0.3232 0,0.4843 -0.1611,0 -0.3222,0 -0.4843,0 0,-0.1611 0,-0.3232 0,-0.4843 z" /><path
                 inkscape:connector-curvature="0"
                 id="path322"
                 style="fill:#ef3e2b;fill-opacity:1;fill-rule:nonzero;stroke:none"
                 d="m 8199.9492,8188.7078 c 0.1611,0 0.3231,0 0.4842,0 0,0.1611 0,0.3232 0,0.4843 -0.1611,0 -0.3231,0 -0.4842,0 0,-0.1611 0,-0.3232 0,-0.4843 z" /><path
                 inkscape:connector-curvature="0"
                 id="path324"
                 style="fill:#ec2c35;fill-opacity:1;fill-rule:nonzero;stroke:none"
                 d="m 8200.4334,8188.7078 c 0.1602,0 0.3222,0 0.4833,0 0,0.1611 0,0.3232 0,0.4843 -0.1611,0 -0.3231,0 -0.4833,0 0,-0.1611 0,-0.3232 0,-0.4843 z" /><path
                 inkscape:connector-curvature="0"
                 id="path326"
                 style="fill:#e71942;fill-opacity:1;fill-rule:nonzero;stroke:none"
                 d="m 8200.9167,8188.7078 c 0.1611,0 0.3222,0 0.4833,0 0,0.1611 0,0.3232 0,0.4843 -0.1611,0 -0.3222,0 -0.4833,0 0,-0.1611 0,-0.3232 0,-0.4843 z" /><path
                 inkscape:connector-curvature="0"
                 id="path328"
                 style="fill:#eb7624;fill-opacity:1;fill-rule:nonzero;stroke:none"
                 d="m 8196.5633,8189.1921 c 0.1601,0 0.3222,0 0.4833,0 0,0.1621 0,0.3222 0,0.4833 -0.1611,0 -0.3232,0 -0.4833,0 0,-0.1611 0,-0.3212 0,-0.4833 z" /><path
                 inkscape:connector-curvature="0"
                 id="path330"
                 style="fill:#f39529;fill-opacity:1;fill-rule:nonzero;stroke:none"
                 d="m 8197.0466,8189.1921 c 0.1611,0 0.3222,0 0.4842,0 0,0.1621 0,0.3222 0,0.4833 -0.162,0 -0.3221,0 -0.4842,0 0,-0.1611 0,-0.3212 0,-0.4833 z" /><path
                 inkscape:connector-curvature="0"
                 id="path332"
                 style="fill:#f3a42e;fill-opacity:1;fill-rule:nonzero;stroke:none"
                 d="m 8197.5308,8189.1921 c 0.1611,0 0.3232,0 0.4843,0 0,0.1621 0,0.3222 0,0.4833 -0.1611,0 -0.3232,0 -0.4843,0 0,-0.1611 0,-0.3212 0,-0.4833 z" /><path
                 inkscape:connector-curvature="0"
                 id="path334"
                 style="fill:#f3a72d;fill-opacity:1;fill-rule:nonzero;stroke:none"
                 d="m 8198.0151,8189.1921 c 0,0.1621 0,0.3222 0,0.4833 0.08,0 0.1601,0 0.2411,0 0,-0.1611 0,-0.3212 0,-0.4833 -0.081,0 -0.161,0 -0.2411,0 z" /><path
                 inkscape:connector-curvature="0"
                 id="path336"
                 style="fill:#f3a42c;fill-opacity:1;fill-rule:nonzero;stroke:none"
                 d="m 8198.2562,8189.1921 c 0,0.1621 0,0.3222 0,0.4833 0.081,0 0.1611,0 0.2422,0 0,-0.1611 0,-0.3212 0,-0.4833 -0.081,0 -0.1611,0 -0.2422,0 z" /><path
                 inkscape:connector-curvature="0"
                 id="path338"
                 style="fill:#f39d29;fill-opacity:1;fill-rule:nonzero;stroke:none"
                 d="m 8198.4984,8189.1921 c 0.1611,0 0.3222,0 0.4833,0 0,0.1621 0,0.3222 0,0.4833 -0.1611,0 -0.3222,0 -0.4833,0 0,-0.1611 0,-0.3212 0,-0.4833 z" /><path
                 inkscape:connector-curvature="0"
                 id="path340"
                 style="fill:#f38127;fill-opacity:1;fill-rule:nonzero;stroke:none"
                 d="m 8198.9817,8189.1921 c 0.162,0 0.3231,0 0.4832,0 0,0.1621 0,0.3222 0,0.4833 -0.1601,0 -0.3212,0 -0.4832,0 0,-0.1611 0,-0.3212 0,-0.4833 z" /><path
                 inkscape:connector-curvature="0"
                 id="path342"
                 style="fill:#f25d27;fill-opacity:1;fill-rule:nonzero;stroke:none"
                 d="m 8199.4649,8189.1921 c 0.1621,0 0.3232,0 0.4843,0 0,0.1621 0,0.3222 0,0.4833 -0.1611,0 -0.3222,0 -0.4843,0 0,-0.1611 0,-0.3212 0,-0.4833 z" /><path
                 inkscape:connector-curvature="0"
                 id="path344"
                 style="fill:#f04628;fill-opacity:1;fill-rule:nonzero;stroke:none"
                 d="m 8199.9492,8189.1921 c 0,0.1621 0,0.3222 0,0.4833 0.081,0 0.1611,0 0.2421,0 0,-0.1611 0,-0.3212 0,-0.4833 -0.081,0 -0.1611,0 -0.2421,0 z" /><path
                 inkscape:connector-curvature="0"
                 id="path346"
                 style="fill:#ef402a;fill-opacity:1;fill-rule:nonzero;stroke:none"
                 d="m 8200.1913,8189.1921 c 0,0.1621 0,0.3222 0,0.4833 0.081,0 0.1611,0 0.2421,0 0,-0.1611 0,-0.3212 0,-0.4833 -0.081,0 -0.1611,0 -0.2421,0 z" /><path
                 inkscape:connector-curvature="0"
                 id="path348"
                 style="fill:#ef3730;fill-opacity:1;fill-rule:nonzero;stroke:none"
                 d="m 8200.4334,8189.1921 c 0.1602,0 0.3222,0 0.4833,0 0,0.1621 0,0.3222 0,0.4833 -0.1611,0 -0.3231,0 -0.4833,0 0,-0.1611 0,-0.3212 0,-0.4833 z" /><path
                 inkscape:connector-curvature="0"
                 id="path350"
                 style="fill:#ea213a;fill-opacity:1;fill-rule:nonzero;stroke:none"
                 d="m 8200.9167,8189.1921 c 0.1611,0 0.3222,0 0.4833,0 0,0.1621 0,0.3222 0,0.4833 -0.1611,0 -0.3222,0 -0.4833,0 0,-0.1611 0,-0.3212 0,-0.4833 z" /><path
                 inkscape:connector-curvature="0"
                 id="path352"
                 style="fill:#ec9829;fill-opacity:1;fill-rule:nonzero;stroke:none"
                 d="m 8196.5633,8189.6754 c 0.1601,0 0.3222,0 0.4833,0 0,0.162 0,0.3241 0,0.4832 -0.1611,0 -0.3232,0 -0.4833,0 0,-0.1591 0,-0.3212 0,-0.4832 z" /><path
                 inkscape:connector-curvature="0"
                 id="path354"
                 style="fill:#f3b433;fill-opacity:1;fill-rule:nonzero;stroke:none"
                 d="m 8197.0466,8189.6754 c 0,0.162 0,0.3241 0,0.4832 0.08,0 0.1611,0 0.2421,0 0,-0.1591 0,-0.3212 0,-0.4832 -0.08,0 -0.1611,0 -0.2421,0 z" /><path
                 inkscape:connector-curvature="0"
                 id="path356"
                 style="fill:#f4bc3a;fill-opacity:1;fill-rule:nonzero;stroke:none"
                 d="m 8197.2887,8189.6754 c 0,0.162 0,0.3241 0,0.4832 0.08,0 0.1611,0 0.2421,0 0,-0.1591 0,-0.3212 0,-0.4832 -0.081,0 -0.162,0 -0.2421,0 z" /><path
                 inkscape:connector-curvature="0"
                 id="path358"
                 style="fill:#f4c03f;fill-opacity:1;fill-rule:nonzero;stroke:none"
                 d="m 8197.5308,8189.6754 c 0.1611,0 0.3232,0 0.4843,0 0,0.162 0,0.3241 0,0.4832 -0.1611,0 -0.3232,0 -0.4843,0 0,-0.1591 0,-0.3212 0,-0.4832 z" /><path
                 inkscape:connector-curvature="0"
                 id="path360"
                 style="fill:#f4c342;fill-opacity:1;fill-rule:nonzero;stroke:none"
                 d="m 8198.0151,8189.6754 c 0,0.162 0,0.3241 0,0.4832 0.08,0 0.1601,0 0.2411,0 0,-0.1591 0,-0.3212 0,-0.4832 -0.081,0 -0.161,0 -0.2411,0 z" /><path
                 inkscape:connector-curvature="0"
                 id="path362"
                 style="fill:#f4c03e;fill-opacity:1;fill-rule:nonzero;stroke:none"
                 d="m 8198.2562,8189.6754 c 0,0.162 0,0.3241 0,0.4832 0.081,0 0.1611,0 0.2422,0 0,-0.1591 0,-0.3212 0,-0.4832 -0.081,0 -0.1611,0 -0.2422,0 z" /><path
                 inkscape:connector-curvature="0"
                 id="path364"
                 style="fill:#f3ba39;fill-opacity:1;fill-rule:nonzero;stroke:none"
                 d="m 8198.4984,8189.6754 c 0.1611,0 0.3222,0 0.4833,0 0,0.162 0,0.3241 0,0.4832 -0.1611,0 -0.3222,0 -0.4833,0 0,-0.1591 0,-0.3212 0,-0.4832 z" /><path
                 inkscape:connector-curvature="0"
                 id="path366"
                 style="fill:#f3a42d;fill-opacity:1;fill-rule:nonzero;stroke:none"
                 d="m 8198.9817,8189.6754 c 0.162,0 0.3231,0 0.4832,0 0,0.162 0,0.3241 0,0.4832 -0.1601,0 -0.3212,0 -0.4832,0 0,-0.1591 0,-0.3212 0,-0.4832 z" /><path
                 inkscape:connector-curvature="0"
                 id="path368"
                 style="fill:#f27a24;fill-opacity:1;fill-rule:nonzero;stroke:none"
                 d="m 8199.4649,8189.6754 c 0,0.162 0,0.3241 0,0.4832 0.081,0 0.1621,0 0.2431,0 0,-0.1591 0,-0.3212 0,-0.4832 -0.081,0 -0.162,0 -0.2431,0 z" /><path
                 inkscape:connector-curvature="0"
                 id="path370"
                 style="fill:#f16424;fill-opacity:1;fill-rule:nonzero;stroke:none"
                 d="m 8199.708,8189.6754 c 0,0.162 0,0.3241 0,0.4832 0.08,0 0.1602,0 0.2412,0 0,-0.1591 0,-0.3212 0,-0.4832 -0.081,0 -0.1611,0 -0.2412,0 z" /><path
                 inkscape:connector-curvature="0"
                 id="path372"
                 style="fill:#f05126;fill-opacity:1;fill-rule:nonzero;stroke:none"
                 d="m 8199.9492,8189.6754 c 0,0.162 0,0.3241 0,0.4832 0.081,0 0.1611,0 0.2421,0 0,-0.1591 0,-0.3212 0,-0.4832 -0.081,0 -0.1611,0 -0.2421,0 z" /><path
                 inkscape:connector-curvature="0"
                 id="path374"
                 style="fill:#f04728;fill-opacity:1;fill-rule:nonzero;stroke:none"
                 d="m 8200.1913,8189.6754 c 0,0.162 0,0.3241 0,0.4832 0.081,0 0.1611,0 0.2421,0 0,-0.1591 0,-0.3212 0,-0.4832 -0.081,0 -0.1611,0 -0.2421,0 z" /><path
                 inkscape:connector-curvature="0"
                 id="path376"
                 style="fill:#ef3f2a;fill-opacity:1;fill-rule:nonzero;stroke:none"
                 d="m 8200.4334,8189.6754 c 0.1602,0 0.3222,0 0.4833,0 0,0.162 0,0.3241 0,0.4832 -0.1611,0 -0.3231,0 -0.4833,0 0,-0.1591 0,-0.3212 0,-0.4832 z" /><path
                 inkscape:connector-curvature="0"
                 id="path378"
                 style="fill:#ec2b35;fill-opacity:1;fill-rule:nonzero;stroke:none"
                 d="m 8200.9167,8189.6754 c 0,0.162 0,0.3241 0,0.4832 0.08,0 0.1611,0 0.2421,0 0,-0.1591 0,-0.3212 0,-0.4832 -0.081,0 -0.162,0 -0.2421,0 z" /><path
                 inkscape:connector-curvature="0"
                 id="path380"
                 style="fill:#e72139;fill-opacity:1;fill-rule:nonzero;stroke:none"
                 d="m 8201.1588,8189.6754 c 0,0.162 0,0.3241 0,0.4832 0.08,0 0.1602,0 0.2412,0 0,-0.1591 0,-0.3212 0,-0.4832 -0.081,0 -0.1611,0 -0.2412,0 z" /></g></g></g></g></g><path
       inkscape:connector-curvature="0"
       id="path382"
       style="fill:#fefefe;fill-opacity:1;fill-rule:evenodd;stroke:none"
       d="m 20.8574,15.5234 c -0.0019,-0.1054 -0.0293,-0.1355 -0.1347,-0.1355 -0.2469,0 -0.4942,0 -0.7414,0 -0.245,0 -0.4918,0 -0.7391,0 -0.1035,0 -0.1328,0.0301 -0.1328,0.1355 0,0.2727 0.0011,0.5496 -0.0039,0.825 0,0.0774 0.0215,0.0961 0.0937,0.093 0.1035,-0.0078 0.1055,-0.0039 0.0938,-0.1047 -0.0403,-0.3496 0.2019,-0.689 0.5468,-0.7566 0.3555,-0.0684 0.711,0.1457 0.8086,0.4855 0.0293,0.1063 0.0379,0.2196 0.0157,0.325 -0.0078,0.0399 0.0019,0.0469 0.0371,0.0469 0.1562,0.0117 0.1562,0.0148 0.1562,-0.1465 0,-0.2539 0,-0.5117 0,-0.7676 z m -0.873,1.1778 c 0.2363,0 0.4394,-0.2032 0.4355,-0.4383 -0.0019,-0.2422 -0.2031,-0.4426 -0.4433,-0.4375 -0.2383,0.0047 -0.4395,0.2059 -0.4336,0.4422 0.0058,0.2371 0.205,0.4336 0.4414,0.4336 z m 0.6484,0.4367 c 0.2246,0 0.2246,0 0.2246,-0.2246 0,-0.2199 0,-0.2199 -0.2207,-0.2199 -0.2226,0 -0.2226,0 -0.2226,0.2226 0,0.2219 0,0.2219 0.2187,0.2219 z m 0.1836,0.2555 c -0.5547,0 -1.1113,0 -1.666,0 -0.1984,0 -0.3008,-0.1043 -0.3008,-0.3024 0,-0.2746 0,-0.55 0,-0.8281 0,-0.2758 0,-0.557 0,-0.8352 0,-0.1914 0.1055,-0.2968 0.291,-0.2968 0.5606,0 1.1172,0 1.6758,0 0.1934,0 0.2996,0.1054 0.2996,0.2996 0,0.5566 0,1.1105 0,1.6664 0,0.1922 -0.1062,0.2965 -0.2996,0.2965" /><path
       inkscape:connector-curvature="0"
       id="path384"
       style="fill:#424652;fill-opacity:1;fill-rule:nonzero;stroke:none"
       d="m 7.11328,5.33398 c 0,-1.09765 -0.84336,-2 -1.91406,-2.08593 C 5.14023,3.23711 5.08008,3.23711 5.02109,3.23711 c -0.15664,0 -0.30859,0.01562 -0.45429,0.04805 -0.94063,0.21211 -1.64414,1.05 -1.64414,2.04882 0,1.15704 0.94179,2.09297 2.09843,2.09297 1.15704,0 2.09219,-0.93593 2.09219,-2.09297" /><path
       inkscape:connector-curvature="0"
       id="path386"
       style="fill:#ffffff;fill-opacity:1;fill-rule:nonzero;stroke:none"
       d="m 5.25898,5.77266 c 0.03204,0.03789 0.09688,0.06523 0.18907,0.06523 0.08633,0 0.18906,-0.01172 0.28633,-0.03906 L 5.81602,6.23828 C 5.64844,6.29688 5.47578,6.31367 5.29688,6.31367 5.11797,6.31367 4.97773,6.28594 4.86445,6.22188 4.75039,6.15703 4.67461,6.08594 4.63203,5.98242 4.58828,5.89141 4.5668,5.73438 4.5668,5.53984 l 0,-0.17265 -0.34649,0 0,-0.50274 0.34649,0 0,-1.57929 C 4.7125,3.25273 4.86445,3.23711 5.02109,3.23711 c 0.05899,0 0.11914,0 0.17813,0.01094 l 0,1.6164 0.45937,0 0,0.50274 -0.45937,0 0,0.16211 c 0,0.12383 0.01641,0.20039 0.05976,0.24336" /><path
       inkscape:connector-curvature="0"
       id="path388"
       style="fill:#424652;fill-opacity:1;fill-rule:nonzero;stroke:none"
       d="m 12.0801,5.33594 c 0,-1.15821 -0.9391,-2.09571 -2.09612,-2.09571 -1.15742,0 -2.09492,0.9375 -2.09492,2.09571 0,1.15742 0.9375,2.0957 2.09492,2.0957 1.15702,0 2.09612,-0.93828 2.09612,-2.0957" /><path
       inkscape:connector-curvature="0"
       id="path390"
       style="fill:#ffffff;fill-opacity:1;fill-rule:evenodd;stroke:none"
       d="M 10.1633,4.30195 C 10.102,4.28984 10.0449,4.28516 10.016,4.28906 c -0.22498,0 -0.40623,0.05 -0.57459,0.14727 C 9.41758,4.45117 9.39922,4.45508 9.37656,4.44727 9.26133,4.41875 9.14883,4.38789 9.03477,4.35859 9.01133,4.35156 9.00898,4.35547 9.01406,4.38008 9.04453,4.48438 9.07266,4.5918 9.10586,4.70117 9.11328,4.73047 9.11133,4.75273 9.09258,4.77734 8.86172,5.15234 8.87227,5.61602 9.13047,5.96406 9.39922,6.32305 9.76914,6.47266 10.2078,6.37891 10.641,6.28828 10.9184,6.00586 11.0172,5.57539 11.157,4.98555 10.759,4.39844 10.1633,4.30195 Z m 1.0633,1.3336 C 11.0879,6.21563 10.5875,6.61133 9.98398,6.61992 9.9043,6.61602 9.81836,6.61055 9.74023,6.59453 8.89414,6.42578 8.45859,5.49102 8.86758,4.73828 8.88242,4.7168 8.88242,4.69805 8.8793,4.67461 8.81992,4.48047 8.76523,4.28047 8.7125,4.08281 8.70352,4.04883 8.70352,4.04883 8.73633,4.05742 8.94297,4.11445 9.14727,4.16602 9.35352,4.21797 9.37148,4.22266 9.38438,4.22266 9.39922,4.21484 9.66406,4.08008 9.94336,4.04297 10.2363,4.09688 c 0.6989,0.13554 1.1575,0.84726 0.9903,1.53867" /><path
       inkscape:connector-curvature="0"
       id="path392"
       style="fill:#ffffff;fill-opacity:1;fill-rule:evenodd;stroke:none"
       d="M 10.3176,4.73828 C 10.273,4.73438 10.2281,4.74219 10.1852,4.75586 9.89336,4.84063 9.67266,5.01953 9.4957,5.26289 9.42969,5.35234 9.3668,5.44922 9.34766,5.5625 9.3207,5.69414 9.36211,5.8125 9.4625,5.90313 9.4957,5.93477 9.59258,5.94922 9.63242,5.92852 9.64492,5.91797 9.65234,5.90703 9.66055,5.89453 9.69688,5.80352 9.73516,5.71953 9.77188,5.63398 9.77734,5.61602 9.77656,5.59766 9.76641,5.58008 9.74727,5.53984 9.71719,5.50781 9.68867,5.47461 9.66406,5.45391 9.66406,5.42969 9.68047,5.4043 9.78516,5.23047 9.92617,5.10547 10.1156,5.03125 c 0.0274,-0.01172 0.0485,-0.00703 0.0657,0.01484 0.0328,0.03789 0.0648,0.07891 0.0953,0.11875 0.0183,0.02539 0.0433,0.0293 0.0707,0.01758 C 10.4098,5.1543 10.4711,5.125 10.5309,5.09766 10.5473,5.08906 10.559,5.08281 10.5738,5.07813 10.6367,5.04609 10.6367,5.04219 10.6293,4.97461 10.6211,4.84063 10.5191,4.77344 10.4023,4.74102 10.3707,4.73438 10.3453,4.73438 10.3176,4.73828" /><path
       inkscape:connector-curvature="0"
       id="path394"
       style="fill:#424652;fill-opacity:1;fill-rule:nonzero;stroke:none"
       d="m 17.0117,5.30742 c 0,-1.15586 -0.9387,-2.09453 -2.0945,-2.09453 -1.1582,0 -2.0957,0.93867 -2.0957,2.09453 0,1.15938 0.9375,2.09688 2.0957,2.09688 1.1558,0 2.0945,-0.9375 2.0945,-2.09688" /><path
       inkscape:connector-curvature="0"
       id="path396"
       style="fill:#ffffff;fill-opacity:1;fill-rule:evenodd;stroke:none"
       d="m 13.6484,4.45508 c 0.1993,-0.0125 0.3926,0.01758 0.5743,0.09961 0.082,0.03515 0.1562,0.07929 0.2304,0.13789 -0.0871,0.00273 -0.166,0.02226 -0.2383,0.05937 -0.123,0.06172 -0.2097,0.16133 -0.2628,0.29297 -0.0118,0.0293 -0.0118,0.0293 0.0207,0.02735 0.0878,-0.00782 0.1523,-0.00586 0.2019,0.01367 -0.0476,0.0164 -0.0926,0.02539 -0.1297,0.05078 -0.1836,0.10039 -0.2812,0.25859 -0.2976,0.46875 -0.0024,0.02461 0.0047,0.02734 0.0269,0.0168 0.0649,-0.03555 0.1352,-0.05196 0.216,-0.05977 -0.0351,0.03203 -0.0656,0.05742 -0.0925,0.08516 -0.1528,0.16367 -0.1887,0.42461 -0.0872,0.62382 0.0137,0.02657 0.0184,0.02657 0.0372,0.00586 0.257,-0.29609 0.5761,-0.47539 0.9609,-0.53632 0.0391,-0.00743 0.082,-0.0086 0.1223,-0.01524 0.0269,-0.00508 0.03,0.00781 0.0261,0.0293 -0.0398,0.23125 0.0684,0.45976 0.2735,0.57617 0.209,0.12188 0.4804,0.08281 0.6484,-0.08125 0.0195,-0.01641 0.0383,-0.02148 0.0606,-0.01445 0.1035,0.02226 0.2,0.06133 0.291,0.11289 0.0078,0.00234 0.0136,0.00703 0.0234,0.01484 C 16.2148,6.23359 16.1367,6.13789 16.0215,6.05977 16.1277,6.07031 16.2234,6.10078 16.3184,6.13789 16.3203,6.12383 16.3105,6.11602 16.3047,6.10547 16.2402,6.01758 16.1648,5.93867 16.0762,5.87227 16.0598,5.85859 16.0559,5.84844 16.0559,5.82695 16.0625,5.42383 15.9336,5.06445 15.6758,4.75195 15.4336,4.4668 15.1238,4.29609 14.7559,4.23555 14.3652,4.17461 13.998,4.24102 13.6602,4.44922 13.6563,4.45195 13.6516,4.45508 13.6484,4.45508" /><path
       inkscape:connector-curvature="0"
       id="path398"
       style="fill:#424652;fill-opacity:1;fill-rule:nonzero;stroke:none"
       d="m 22.0781,5.32031 c 0,-1.15703 -0.9375,-2.0957 -2.0957,-2.0957 -1.1562,0 -2.0945,0.93867 -2.0945,2.0957 0,1.15703 0.9383,2.09688 2.0945,2.09688 1.1582,0 2.0957,-0.93985 2.0957,-2.09688" /><path
       inkscape:connector-curvature="0"
       id="path400"
       style="fill:#ffffff;fill-opacity:1;fill-rule:evenodd;stroke:none"
       d="M 20.8574,4.58203 C 20.8555,4.47656 20.8281,4.44648 20.7227,4.44648 c -0.2469,0 -0.4942,0 -0.7414,0 -0.245,0 -0.4918,0 -0.7391,0 -0.1035,0 -0.1328,0.03008 -0.1328,0.13555 0,0.27149 0.0011,0.54883 -0.0039,0.82422 0,0.07813 0.0215,0.0957 0.0937,0.09258 0.1035,-0.00664 0.1055,-0.00274 0.0938,-0.10352 -0.0403,-0.35039 0.2019,-0.68906 0.5468,-0.75664 0.3555,-0.06836 0.711,0.14453 0.8086,0.48516 0.0293,0.10664 0.0379,0.21992 0.0157,0.32539 -0.0078,0.03906 0.0019,0.04687 0.0371,0.04687 0.1562,0.01172 0.1562,0.01446 0.1562,-0.14765 0,-0.25274 0,-0.51055 0,-0.76641 z m -0.873,1.17774 c 0.2363,0 0.4394,-0.20391 0.4355,-0.43946 -0.0019,-0.2414 -0.2031,-0.4414 -0.4433,-0.4375 -0.2383,0.00586 -0.4395,0.20625 -0.4336,0.44336 0.0058,0.2375 0.205,0.4336 0.4414,0.4336 z m 0.6484,0.43671 c 0.2246,0 0.2246,0 0.2246,-0.2246 0,-0.21993 0,-0.21993 -0.2207,-0.21993 -0.2226,0 -0.2226,0 -0.2226,0.22266 0,0.22187 0,0.22187 0.2187,0.22187 z m 0.1836,0.25469 c -0.5547,0 -1.1113,0 -1.666,0 -0.1984,0 -0.3008,-0.10351 -0.3008,-0.30273 0,-0.27461 0,-0.55 0,-0.82813 0,-0.27539 0,-0.55586 0,-0.83398 0,-0.19141 0.1055,-0.29688 0.291,-0.29688 0.5606,0 1.1172,0 1.6758,0 0.1934,0 0.2996,0.10547 0.2996,0.3 0,0.55547 0,1.10899 0,1.66602 0,0.19219 -0.1062,0.2957 -0.2996,0.2957" /><path
       inkscape:connector-curvature="0"
       id="path402"
       style="fill:#474b57;fill-opacity:1;fill-rule:nonzero;stroke:none"
       d="m 5.02109,13.0059 c -1.2164,0 -2.20625,-0.9883 -2.20625,-2.2012 0,-1.0215 0.72696,-1.92775 1.72813,-2.15314 0.15156,-0.0332 0.31211,-0.05 0.47812,-0.05 0.06524,0 0.13164,0 0.19649,0.00977 1.11875,0.09062 2.00351,1.05351 2.00351,2.19337 0,1.2129 -0.98711,2.2012 -2.2,2.2012 l 0,0 z m 0,-0.1075 c 1.15704,0 2.09219,-0.9355 2.09219,-2.0937 0,-1.09767 -0.84336,-1.99884 -1.91406,-2.08595 C 5.14023,8.70781 5.08008,8.70781 5.02109,8.70781 4.86445,8.70781 4.7125,8.72344 4.5668,8.75664 3.62617,8.9668 2.92266,9.80586 2.92266,10.8047 c 0,1.1582 0.94179,2.0937 2.09843,2.0937" /><path
       inkscape:connector-curvature="0"
       id="path404"
       style="fill:#3e414d;fill-opacity:1;fill-rule:nonzero;stroke:none"
       d="m 5.25898,11.2441 c 0.03204,0.0379 0.09688,0.0657 0.18907,0.0657 0.08633,0 0.18906,-0.0129 0.28633,-0.0403 l 0.08164,0.4395 c -0.16758,0.0586 -0.34024,0.0754 -0.51914,0.0754 -0.17891,0 -0.31915,-0.0278 -0.43243,-0.093 C 4.75039,11.6289 4.67461,11.5574 4.63203,11.4539 4.58828,11.3613 4.5668,11.2063 4.5668,11.0105 l 0,-0.1726 -0.34649,0 0,-0.502 0.34649,0 0,-1.57926 c 0.1457,-0.0332 0.29765,-0.04883 0.45429,-0.04883 0.05899,0 0.11914,0 0.17813,0.01094 l 0,1.61715 0.45937,0 0,0.502 -0.45937,0 0,0.1621 c 0,0.1238 0.01641,0.2004 0.05976,0.2441" /><path
       inkscape:connector-curvature="0"
       id="path406"
       style="fill:#474b57;fill-opacity:1;fill-rule:nonzero;stroke:none"
       d="m 9.98398,13.0098 c -1.21445,0 -2.20273,-0.9883 -2.20273,-2.2032 0,-1.2148 0.98828,-2.20308 2.20273,-2.20308 1.21522,0 2.20392,0.98828 2.20392,2.20308 0,1.2149 -0.9887,2.2032 -2.20392,2.2032 l 0,0 z m 0,-0.1075 c 1.15702,0 2.09612,-0.9375 2.09612,-2.0957 0,-1.15816 -0.9391,-2.09566 -2.09612,-2.09566 -1.15742,0 -2.09492,0.9375 -2.09492,2.09566 0,1.1582 0.9375,2.0957 2.09492,2.0957" /><path
       inkscape:connector-curvature="0"
       id="path408"
       style="fill:#3e414d;fill-opacity:1;fill-rule:evenodd;stroke:none"
       d="M 10.1633,9.77266 C 10.102,9.76172 10.0449,9.75586 10.016,9.75977 9.79102,9.75977 9.60977,9.81055 9.44141,9.90703 9.41758,9.92188 9.39922,9.92578 9.37656,9.91719 9.26133,9.88945 9.14883,9.85859 9.03477,9.82891 9.01133,9.82227 9.00898,9.82695 9.01406,9.84961 c 0.03047,0.10547 0.0586,0.21289 0.0918,0.32229 0.00742,0.0293 0.00547,0.0527 -0.01328,0.0754 -0.23086,0.3765 -0.22031,0.8386 0.03789,1.1882 0.26875,0.3594 0.63867,0.5086 1.07733,0.4141 0.4332,-0.0906 0.7106,-0.3723 0.8094,-0.8035 0.1398,-0.591 -0.2582,-1.17696 -0.8539,-1.27344 z m 1.0633,1.33474 C 11.0879,11.6875 10.5875,12.0828 9.98398,12.0906 9.9043,12.0867 9.81836,12.0813 9.74023,12.0664 8.89414,11.8953 8.45859,10.9617 8.86758,10.2102 8.88242,10.1887 8.88242,10.1699 8.8793,10.1465 8.81992,9.95117 8.76523,9.75117 8.7125,9.55352 8.70352,9.51953 8.70352,9.51953 8.73633,9.52813 8.94297,9.58516 9.14727,9.63789 9.35352,9.68867 9.37148,9.69414 9.38438,9.69414 9.39922,9.68633 9.66406,9.55195 9.94336,9.51367 10.2363,9.56836 c 0.6989,0.13477 1.1575,0.84764 0.9903,1.53904" /><path
       inkscape:connector-curvature="0"
       id="path410"
       style="fill:#3e414d;fill-opacity:1;fill-rule:evenodd;stroke:none"
       d="m 10.3176,10.2102 c -0.0446,-0.0051 -0.0895,0.0039 -0.1324,0.0164 -0.29184,0.0859 -0.51254,0.2644 -0.6895,0.507 -0.06601,0.0894 -0.1289,0.1863 -0.14804,0.3008 -0.02696,0.1316 0.01445,0.25 0.11484,0.3394 0.0332,0.0325 0.13008,0.0473 0.16992,0.0254 C 9.64492,11.3887 9.65234,11.3789 9.66055,11.366 9.69688,11.2754 9.73516,11.1914 9.77188,11.1055 9.77734,11.0859 9.77656,11.0691 9.76641,11.0508 9.74727,11.0105 9.71719,10.9797 9.68867,10.9453 9.66406,10.9246 9.66406,10.9016 9.68047,10.8762 c 0.10469,-0.175 0.2457,-0.3008 0.43513,-0.3742 0.0274,-0.011 0.0485,-0.0071 0.0657,0.0144 0.0328,0.0383 0.0648,0.0805 0.0953,0.1203 0.0183,0.0242 0.0433,0.0293 0.0707,0.0164 0.0625,-0.0269 0.1238,-0.0562 0.1836,-0.084 0.0164,-0.0086 0.0281,-0.0144 0.0429,-0.0211 0.0629,-0.0316 0.0629,-0.0351 0.0555,-0.1027 -0.0082,-0.1328 -0.1102,-0.2004 -0.227,-0.2336 -0.0316,-0.0066 -0.057,-0.0066 -0.0847,-0.0015" /><path
       inkscape:connector-curvature="0"
       id="path412"
       style="fill:#474b57;fill-opacity:1;fill-rule:nonzero;stroke:none"
       d="m 14.9172,12.9824 c -1.2152,0 -2.2039,-0.9883 -2.2039,-2.2031 0,-1.21485 0.9887,-2.20313 2.2039,-2.20313 1.2137,0 2.2019,0.98828 2.2019,2.20313 0,1.2148 -0.9882,2.2031 -2.2019,2.2031 l 0,0 z m 0,-0.1074 c 1.1558,0 2.0945,-0.9375 2.0945,-2.0957 0,-1.15625 -0.9387,-2.09571 -2.0945,-2.09571 -1.1582,0 -2.0957,0.93946 -2.0957,2.09571 0,1.1582 0.9375,2.0957 2.0957,2.0957" /><path
       inkscape:connector-curvature="0"
       id="path414"
       style="fill:#3e414d;fill-opacity:1;fill-rule:evenodd;stroke:none"
       d="m 13.6484,9.92578 c 0.1993,-0.0125 0.3926,0.0168 0.5743,0.09842 0.082,0.0363 0.1562,0.0805 0.2304,0.1391 -0.0871,0.0015 -0.166,0.023 -0.2383,0.0594 -0.123,0.0625 -0.2097,0.1613 -0.2628,0.2937 -0.0118,0.0297 -0.0118,0.0297 0.0207,0.0274 0.0878,-0.0086 0.1523,-0.0067 0.2019,0.0128 -0.0476,0.0164 -0.0926,0.0254 -0.1297,0.0497 -0.1836,0.1015 -0.2812,0.2589 -0.2976,0.4699 -0.0024,0.0246 0.0047,0.0273 0.0269,0.0168 0.0649,-0.0364 0.1352,-0.0508 0.216,-0.0586 -0.0351,0.0308 -0.0656,0.0562 -0.0925,0.084 -0.1528,0.1636 -0.1887,0.4238 -0.0872,0.6238 0.0137,0.0273 0.0184,0.0273 0.0372,0.0058 0.257,-0.296 0.5761,-0.4746 0.9609,-0.5363 0.0391,-0.0078 0.082,-0.0078 0.1223,-0.0164 0.0269,-0.0039 0.03,0.0086 0.0261,0.0293 -0.0398,0.2317 0.0684,0.4609 0.2735,0.5762 0.209,0.1222 0.4804,0.084 0.6484,-0.0801 0.0195,-0.0168 0.0383,-0.0203 0.0606,-0.0144 0.1035,0.0234 0.2,0.0613 0.291,0.114 0.0078,0.002 0.0136,0.0059 0.0234,0.0149 -0.0391,-0.1313 -0.1172,-0.2278 -0.2324,-0.3047 0.1062,0.0093 0.2019,0.0418 0.2969,0.0769 0.0019,-0.0129 -0.0079,-0.0207 -0.0137,-0.0312 -0.0645,-0.0879 -0.1399,-0.166 -0.2285,-0.2332 -0.0164,-0.0129 -0.0203,-0.0239 -0.0203,-0.0442 0.0066,-0.4043 -0.1223,-0.7636 -0.3801,-1.0761 C 15.4336,9.93867 15.1238,9.76563 14.7559,9.70703 14.3652,9.64648 13.998,9.71094 13.6602,9.91992 13.6563,9.92383 13.6516,9.92578 13.6484,9.92578" /><path
       inkscape:connector-curvature="0"
       id="path416"
       style="fill:#474b57;fill-opacity:1;fill-rule:nonzero;stroke:none"
       d="m 19.9824,12.9949 c -1.2148,0 -2.2019,-0.9883 -2.2019,-2.2027 0,-1.21525 0.9871,-2.20314 2.2019,-2.20314 1.2149,0 2.2031,0.98789 2.2031,2.20314 0,1.2144 -0.9882,2.2027 -2.2031,2.2027 l 0,0 z m 0,-0.107 c 1.1582,0 2.0957,-0.9399 2.0957,-2.0957 0,-1.15822 -0.9375,-2.09572 -2.0957,-2.09572 -1.1562,0 -2.0945,0.9375 -2.0945,2.09572 0,1.1558 0.9383,2.0957 2.0945,2.0957" /><path
       inkscape:connector-curvature="0"
       id="path418"
       style="fill:#3e414d;fill-opacity:1;fill-rule:evenodd;stroke:none"
       d="M 20.8574,10.052 C 20.8555,9.94648 20.8281,9.91719 20.7227,9.91719 c -0.2469,0 -0.4942,0 -0.7414,0 -0.245,0 -0.4918,0 -0.7391,0 -0.1035,0 -0.1328,0.02929 -0.1328,0.13481 0,0.2734 0.0011,0.5503 -0.0039,0.8257 0,0.0786 0.0215,0.095 0.0937,0.093 0.1035,-0.009 0.1055,-0.0039 0.0938,-0.1055 -0.0403,-0.3488 0.2019,-0.6894 0.5468,-0.7566 0.3555,-0.0676 0.711,0.1453 0.8086,0.4859 0.0293,0.1067 0.0379,0.2207 0.0157,0.3254 -0.0078,0.0403 0.0019,0.0469 0.0371,0.0469 0.1562,0.0129 0.1562,0.0145 0.1562,-0.1477 0,-0.2515 0,-0.5105 0,-0.7671 z m -0.873,1.1793 c 0.2363,0 0.4394,-0.204 0.4355,-0.4391 -0.0019,-0.2426 -0.2031,-0.4414 -0.4433,-0.4375 -0.2383,0.0039 -0.4395,0.2058 -0.4336,0.4414 0.0058,0.2383 0.205,0.4352 0.4414,0.4352 z m 0.6484,0.4347 c 0.2246,0 0.2246,0 0.2246,-0.2246 0,-0.2187 0,-0.2187 -0.2207,-0.2187 -0.2226,0 -0.2226,0 -0.2226,0.2226 0,0.2207 0,0.2207 0.2187,0.2207 z m 0.1836,0.257 c -0.5547,0 -1.1113,0 -1.666,0 -0.1984,0 -0.3008,-0.1054 -0.3008,-0.3031 0,-0.2754 0,-0.5508 0,-0.8277 0,-0.2758 0,-0.5578 0,-0.83517 0,-0.1914 0.1055,-0.29609 0.291,-0.29609 0.5606,0 1.1172,0 1.6758,0 0.1934,0 0.2996,0.10469 0.2996,0.29804 0,0.55742 0,1.11012 0,1.66802 0,0.1906 -0.1062,0.296 -0.2996,0.296" /></g></svg>